<?xml version="1.0" standalone="no"?>
<!DOCTYPE svg PUBLIC "-//W3C//DTD SVG 20010904//EN"
 "http://www.w3.org/TR/2001/REC-SVG-20010904/DTD/svg10.dtd">
<svg version="1.0" xmlns="http://www.w3.org/2000/svg"
 width="1024.000000pt" height="1024.000000pt" viewBox="0 0 1024.000000 1024.000000"
 preserveAspectRatio="xMidYMid meet">

<g transform="translate(0.000000,1024.000000) scale(0.100000,-0.100000)"
fill="#000000" stroke="none">
<path d="M2595 9451 c-146 -52 -206 -114 -259 -264 -12 -33 -25 -58 -30 -57
-5 1 -13 -5 -18 -14 -8 -14 1 -38 32 -86 5 -8 20 -42 32 -75 15 -42 38 -77 76
-117 56 -59 100 -82 208 -107 46 -11 56 -10 120 14 143 54 213 122 254 250 7
22 19 46 27 53 18 18 17 81 -2 88 -8 3 -17 22 -21 42 -11 62 -64 150 -116 194
-55 46 -174 98 -222 97 -17 0 -54 -8 -81 -18z m55 -166 c0 -114 0 -116 -27
-140 -26 -22 -37 -24 -131 -25 -81 0 -104 3 -108 15 -3 8 9 46 27 85 37 81 96
140 162 164 79 28 77 30 77 -99z m123 95 c91 -34 180 -141 189 -226 l3 -29
-98 -3 c-96 -3 -98 -2 -126 26 -27 27 -29 35 -36 140 -5 77 -4 112 4 112 5 0
35 -9 64 -20z m-150 -344 c25 -33 27 -41 27 -135 0 -100 0 -101 -24 -101 -94
0 -236 145 -236 243 l0 27 103 0 102 0 28 -34z m337 11 c0 -83 -64 -171 -162
-220 -84 -43 -84 -43 -91 75 -5 100 -5 103 21 134 l27 33 103 0 c100 1 102 1
102 -22z"/>
<path d="M4110 9428 c-30 -32 -23 -78 13 -98 27 -15 29 -14 58 18 32 36 37 63
13 86 -22 23 -60 20 -84 -6z"/>
<path d="M6692 9346 c-1 -24 -7 -68 -13 -97 -9 -45 -27 -161 -31 -206 -1 -7
-5 -13 -10 -13 -4 0 -8 -8 -8 -17 0 -10 -4 -24 -9 -32 -6 -9 -8 10 -6 51 l3
65 -28 -26 c-16 -14 -44 -47 -62 -73 -45 -63 -98 -104 -193 -148 -140 -65
-180 -75 -295 -75 -91 0 -111 4 -149 24 -52 27 -151 118 -151 137 0 8 -4 14
-9 14 -5 0 -11 6 -14 13 -6 18 2 -28 9 -50 5 -15 4 -15 -7 2 -7 11 -15 22 -19
25 -12 10 -30 88 -30 133 0 51 0 51 -107 63 l-63 7 0 -52 c0 -28 -4 -51 -9
-51 -16 0 -41 43 -41 71 0 25 -4 28 -62 38 -35 5 -146 10 -247 11 -101 0 -187
2 -190 4 -14 8 -338 -22 -511 -48 -17 -2 -120 -26 -299 -68 -196 -46 -521
-212 -521 -266 0 -9 20 -57 45 -107 48 -96 190 -286 329 -440 45 -49 115 -130
156 -180 133 -161 267 -314 289 -331 13 -10 13 -14 1 -30 -14 -18 -14 -18 3
-5 15 12 21 9 57 -30 21 -24 39 -49 40 -56 0 -17 21 -21 60 -11 224 55 652 53
905 -3 230 -52 410 -117 590 -215 489 -268 841 -639 1050 -1109 69 -155 160
-490 175 -643 11 -108 12 -268 2 -236 -5 14 -15 20 -33 19 -25 -2 -27 2 -37
64 -6 36 -16 109 -22 161 -6 53 -19 129 -30 170 l-19 75 6 -70 c3 -38 12 -97
21 -130 42 -160 -6 -870 -58 -870 -8 0 -17 -11 -18 -25 -2 -14 -8 -30 -14 -37
-5 -7 -6 -18 -2 -24 4 -8 3 -9 -4 -5 -7 4 -12 2 -12 -5 0 -7 -2 -10 -5 -7 -3
3 1 20 9 39 21 50 56 219 71 344 16 123 13 400 -5 505 -33 196 -128 512 -198
657 -88 181 -262 427 -286 403 -5 -5 -15 -10 -20 -10 -6 0 -5 5 2 12 17 17 15
28 -4 21 -13 -5 -15 -2 -10 15 4 11 2 23 -3 27 -6 3 -8 0 -5 -8 5 -15 -11 -31
-31 -32 -5 0 -9 -8 -7 -18 2 -12 -4 -17 -22 -17 -14 0 -28 5 -31 10 -3 6 -12
10 -18 10 -7 0 -4 -5 6 -11 17 -10 15 -13 -17 -30 -20 -10 -39 -18 -43 -18
-19 3 -33 -2 -33 -12 0 -6 7 -8 16 -5 9 3 12 2 9 -5 -4 -5 -15 -7 -26 -4 -12
4 -19 2 -19 -6 0 -7 -3 -10 -6 -6 -10 10 156 168 168 161 7 -4 8 -3 4 4 -4 7
-3 12 3 12 5 0 11 -6 14 -12 4 -10 7 -10 18 0 8 8 9 12 2 12 -7 0 -15 9 -18
21 -8 25 -61 86 -88 100 -13 8 -17 8 -13 1 7 -12 -51 -59 -66 -54 -12 3 -48
-27 -48 -41 0 -5 9 1 19 14 11 13 23 21 27 17 7 -8 -27 -41 -61 -59 -18 -9
-19 -9 -3 4 10 8 15 16 13 19 -3 3 1 21 9 40 15 34 14 35 -11 47 -31 14 -36
10 -35 -27 0 -18 -7 -33 -19 -40 -10 -7 -19 -8 -19 -3 0 6 5 13 10 16 6 3 10
19 10 36 0 16 5 29 10 29 6 0 10 10 10 23 0 18 -2 19 -10 7 -5 -8 -10 -13 -11
-10 0 3 -3 19 -5 35 -3 17 -7 37 -11 45 -3 8 -7 20 -7 25 -1 6 -9 9 -19 9 -9
-1 -17 2 -17 7 0 5 -11 9 -25 9 -18 0 -23 4 -19 15 5 11 2 13 -12 8 -12 -4
-15 -3 -10 5 5 8 -2 12 -21 13 -17 1 -21 3 -10 6 18 5 24 23 7 23 -5 0 -10 5
-10 11 0 6 9 8 21 4 14 -5 19 -3 15 3 -3 6 -19 10 -34 10 -15 -1 -38 3 -51 7
-19 6 -23 4 -18 -8 3 -9 -1 -21 -10 -28 -12 -11 -17 -10 -24 4 -7 12 -23 17
-53 17 -34 0 -50 7 -82 34 -31 27 -42 31 -51 21 -6 -7 -9 -15 -7 -18 8 -8 -34
-19 -46 -12 -5 3 -10 13 -10 21 0 8 -4 14 -10 14 -5 0 -10 5 -10 11 0 5 5 7
11 4 7 -5 9 3 7 21 -2 16 -7 29 -13 29 -5 1 -24 9 -42 18 -18 9 -48 17 -68 17
-22 0 -34 4 -30 10 10 16 -11 12 -25 -5 -15 -18 -66 -14 -101 7 -17 10 -23 10
-26 1 -6 -15 -83 -18 -83 -3 0 6 7 10 17 10 14 0 14 2 -3 21 -16 17 -27 20
-66 17 -33 -4 -52 -1 -59 8 -6 8 -19 14 -27 14 -13 0 -13 2 3 13 17 13 17 14
-4 20 -12 3 -21 0 -21 -6 0 -8 -3 -7 -9 1 -4 8 -12 14 -17 14 -42 4 -70 42
-43 59 7 4 10 12 5 16 -5 4 -11 2 -13 -5 -3 -8 -15 -11 -37 -6 -24 4 -38 1
-50 -11 -12 -12 -26 -16 -47 -11 -16 3 -28 2 -25 -2 2 -4 -9 -7 -26 -8 -16 -1
-37 -9 -46 -18 -15 -15 -12 -16 48 -11 69 5 130 -15 130 -43 0 -7 5 -10 11 -6
8 4 9 -3 4 -26 -6 -29 -5 -32 10 -26 15 5 16 4 6 -8 -7 -8 -10 -20 -6 -26 3
-5 -8 -25 -27 -43 -18 -17 -32 -34 -31 -37 1 -3 -20 -5 -47 -5 -36 0 -54 6
-72 23 -14 12 -28 19 -31 15 -4 -3 -7 19 -7 50 0 62 -16 83 -38 49 -16 -25
-42 -29 -42 -8 0 9 -10 13 -32 11 -46 -4 -45 -4 -51 -18 -4 -10 2 -13 20 -9
18 3 24 1 19 -7 -8 -12 -52 -15 -59 -3 -2 4 -2 1 -1 -6 4 -16 -47 -37 -55 -23
-4 5 -23 6 -48 2 -33 -6 -40 -5 -36 6 4 9 -5 13 -35 13 -23 0 -42 5 -45 13 -3
7 -9 0 -16 -15 -6 -16 -15 -28 -21 -28 -5 0 -10 -7 -10 -15 0 -8 5 -15 10 -15
6 0 10 -4 10 -10 0 -5 -6 -7 -12 -5 -15 6 -40 56 -33 63 3 3 5 0 5 -6 0 -7 5
-12 10 -12 15 0 12 26 -5 40 -10 9 -15 9 -15 1 0 -14 -37 -15 -45 0 -4 6 -13
8 -20 5 -7 -2 -17 0 -23 6 -6 6 -16 7 -22 3 -9 -6 -9 -9 0 -15 8 -5 2 -12 -17
-20 -27 -12 -29 -17 -31 -79 -3 -65 -3 -66 30 -85 l32 -20 -27 -9 c-15 -5 -27
-12 -27 -15 0 -4 -12 -8 -27 -9 -16 -1 -40 -5 -55 -9 -17 -4 -28 -2 -28 4 0 6
13 12 30 14 23 2 27 6 21 17 -7 10 -25 14 -60 12 -39 -1 -51 1 -51 13 0 17
-57 20 -77 4 -18 -15 -76 -15 -91 0 -8 7 -18 10 -23 7 -5 -4 -9 1 -9 9 0 10
-9 16 -26 16 -14 0 -22 -4 -19 -10 4 -6 -1 -7 -11 -3 -13 5 -16 3 -11 -9 6
-17 -11 -28 -42 -28 -26 0 -125 -95 -126 -120 0 -13 -9 -28 -20 -34 -11 -6
-24 -17 -28 -23 -4 -7 -13 -13 -19 -13 -7 0 3 16 22 35 46 47 35 52 -13 6
l-38 -37 26 -12 c15 -7 24 -8 20 -2 -3 6 2 13 12 17 10 4 24 13 31 20 16 15
32 17 32 3 0 -5 6 -7 14 -4 8 3 16 -3 19 -15 5 -22 -8 -30 -16 -8 -2 6 -4 -4
-4 -23 -1 -23 1 -29 6 -17 4 10 11 18 16 18 6 0 10 9 11 22 2 57 6 70 29 92
41 42 121 29 162 -24 17 -23 8 -80 -17 -106 -41 -44 -137 -75 -124 -41 3 9 -3
17 -15 21 -12 3 -21 11 -21 17 0 6 -3 8 -6 5 -4 -4 -1 -13 6 -22 10 -12 10
-18 0 -30 -14 -17 -46 -20 -55 -5 -8 14 -45 13 -45 -1 0 -6 23 -36 50 -66 28
-31 48 -58 45 -61 -3 -3 -6 -3 -8 -1 -2 2 -25 30 -52 62 -30 36 -48 68 -49 85
-1 15 -5 25 -11 22 -5 -3 -9 -13 -7 -24 2 -16 -1 -15 -17 5 -14 17 -16 26 -8
32 8 6 5 7 -7 3 -10 -4 -24 -2 -31 4 -17 14 -71 -14 -92 -48 -10 -15 -38 -52
-63 -82 -25 -30 -54 -66 -63 -80 -10 -14 -31 -43 -48 -65 -75 -101 -112 -161
-189 -310 -65 -126 -91 -189 -121 -297 -65 -230 -108 -557 -96 -741 l6 -87 50
-57 c64 -71 82 -111 89 -189 7 -90 -4 -151 -31 -165 -28 -15 -36 -15 -792 -5
-415 5 -652 12 -656 18 -4 7 -9 6 -13 -1 -8 -13 -76 -15 -76 -2 0 4 12 6 27 3
21 -4 25 -2 20 11 -4 11 1 17 16 20 16 3 13 5 -10 6 -17 0 -33 -4 -35 -11 -3
-7 -11 -9 -24 -4 -12 6 -15 10 -6 13 6 3 12 11 12 19 0 9 -4 12 -10 9 -5 -3
-10 2 -10 12 -1 17 -1 17 -11 1 -12 -22 -64 -25 -56 -4 4 10 1 13 -8 9 -8 -3
-18 2 -21 11 -3 9 -10 16 -15 16 -4 0 -6 -7 -3 -15 7 -17 -11 -21 -21 -5 -3 6
-14 10 -23 10 -11 0 -6 -7 15 -19 25 -16 30 -24 25 -43 -7 -22 -7 -22 -10 5
-3 20 -9 27 -25 26 -21 0 -21 -1 -2 -9 14 -5 7 -8 -27 -8 -27 0 -50 4 -54 9
-3 5 -11 9 -17 9 -9 0 -9 -2 0 -8 6 -4 10 -19 10 -34 -2 -23 -6 -27 -22 -22
-19 6 -31 18 -38 38 -2 5 -33 8 -69 7 -59 -1 -67 1 -73 19 -3 11 -11 20 -17
20 -7 0 -7 -5 1 -14 9 -11 8 -15 -5 -20 -24 -9 -31 -7 -14 5 12 9 11 10 -7 6
-13 -3 -24 1 -27 10 -8 20 -8 19 10 37 8 9 11 16 5 16 -6 0 -9 6 -7 13 1 6 1
9 -1 5 -3 -5 -12 -8 -21 -9 -14 0 -13 -2 3 -9 11 -5 14 -9 8 -9 -7 -1 -13 -8
-13 -16 0 -8 -5 -15 -10 -15 -6 0 -9 5 -8 11 2 6 -3 14 -11 17 -8 3 -11 0 -7
-7 9 -14 5 -14 -31 0 l-28 11 30 13 30 12 -27 -1 c-16 0 -28 -5 -28 -9 0 -5
-5 -5 -10 -2 -6 4 -8 11 -5 16 3 5 -1 6 -9 3 -9 -3 -16 -2 -16 4 0 5 -6 12
-13 15 -7 3 -13 -3 -13 -13 0 -10 3 -17 7 -14 4 2 15 1 25 -3 16 -6 16 -7 -2
-14 -16 -6 -15 -8 8 -8 28 -1 45 -16 29 -25 -5 -4 -12 0 -15 6 -3 7 -3 2 0
-12 4 -20 3 -22 -5 -10 -10 13 -12 13 -20 0 -7 -10 -6 -17 2 -22 9 -6 9 -8 0
-8 -6 0 -15 5 -18 10 -3 6 -13 10 -21 10 -10 0 -12 -5 -8 -12 6 -10 5 -10 -7
-1 -12 10 -15 7 -17 -17 -4 -55 18 -60 245 -60 l202 0 11 -52 c16 -81 15 -80
123 -79 74 1 99 -3 111 -15 21 -21 20 -37 -3 -58 -23 -21 -128 -38 -135 -22
-2 6 -5 5 -5 -3 -1 -11 -4 -11 -17 0 -15 12 -16 9 -9 -31 4 -25 13 -70 21
-100 19 -75 18 -150 -3 -180 -55 -79 -159 -312 -147 -331 3 -5 20 -9 38 -9 31
0 35 4 56 51 41 97 84 184 103 210 11 15 39 76 63 135 24 60 48 110 54 112 6
2 24 -27 40 -65 17 -37 42 -90 56 -118 15 -27 57 -111 94 -186 l68 -136 124
-6 c161 -8 376 -41 395 -60 26 -26 7 -53 -60 -81 -34 -15 -70 -32 -81 -37 -10
-6 -30 -13 -44 -15 -35 -7 -66 -25 -56 -33 16 -11 16 -34 0 -28 -10 4 -13 1
-9 -9 4 -10 -2 -14 -22 -14 -18 0 -29 -6 -32 -20 -3 -11 -13 -20 -22 -20 -9 0
-44 -26 -77 -58 -54 -51 -60 -61 -58 -92 6 -72 6 -106 0 -140 -4 -26 -4 -28 2
-10 7 22 9 20 14 -20 3 -25 9 -54 14 -64 6 -15 4 -18 -8 -13 -12 4 -14 1 -11
-13 3 -11 12 -21 22 -23 14 -4 14 -5 -1 -6 -23 -1 -23 -27 -1 -39 13 -8 11 -9
-10 -9 -15 0 -27 3 -27 8 0 5 -7 9 -15 9 -16 0 -45 12 -197 84 -106 49 -108
51 -108 84 0 18 -4 31 -9 28 -5 -4 -12 11 -16 33 l-6 38 -77 7 c-56 4 -78 3
-84 -6 -6 -10 -8 -10 -8 1 0 11 -4 11 -18 -2 -10 -10 -22 -14 -25 -10 -6 5
-12 -28 -8 -49 0 -5 -2 -8 -6 -8 -5 0 -9 -17 -10 -37 -2 -30 4 -42 29 -65 17
-15 44 -30 62 -34 27 -6 29 -8 11 -15 -28 -11 -43 -10 -25 1 13 9 13 10 0 10
-8 0 -22 -5 -30 -10 -13 -9 -13 -10 0 -10 11 -1 10 -4 -5 -16 -11 -8 -25 -12
-33 -9 -7 2 -10 1 -7 -5 3 -5 -8 -16 -24 -24 -16 -9 -36 -22 -44 -30 -13 -13
-14 0 -10 102 4 140 22 292 36 310 7 9 6 11 -7 6 -11 -4 -16 -1 -16 11 0 11
-5 15 -14 12 -11 -4 -13 -1 -9 10 4 11 2 14 -5 9 -7 -4 -12 -3 -12 3 0 5 5 13
10 16 6 3 10 11 10 16 0 6 -8 3 -18 -7 -15 -16 -17 -16 -20 -1 -2 10 -9 14
-19 10 -11 -4 -14 -3 -9 6 6 8 2 11 -10 9 -12 -2 -23 7 -32 25 -11 23 -27 32
-54 29 -3 -1 -9 5 -12 13 -4 12 -1 12 20 3 13 -6 27 -8 31 -5 3 4 4 8 2 10 -5
4 -165 72 -261 111 -43 17 -79 37 -80 44 -5 20 -48 -15 -48 -39 0 -35 17 -55
148 -173 70 -63 153 -138 185 -168 l59 -53 -11 -65 c-6 -36 -15 -141 -21 -234
-10 -151 -9 -171 6 -193 28 -43 82 -29 307 81 l199 96 75 -42 c42 -24 78 -48
80 -55 4 -9 10 -9 27 3 35 22 223 83 296 95 226 38 496 -47 682 -215 l62 -57
81 79 c70 69 301 279 503 456 37 33 110 99 162 147 l94 87 -71 -13 c-150 -29
-292 -110 -358 -205 -15 -22 -31 -37 -36 -34 -5 3 -6 -3 -2 -12 5 -13 3 -15
-7 -9 -10 6 -12 4 -7 -8 7 -19 -8 -33 -18 -17 -13 21 -57 30 -143 31 -99 1
-113 -1 -127 -19 -9 -11 -13 -11 -24 2 -42 51 70 251 218 389 150 139 377 201
599 163 105 -18 199 -21 237 -6 35 13 143 107 150 131 4 11 10 19 15 19 10 0
45 33 263 242 l142 136 -62 57 c-74 67 -176 196 -226 286 -36 65 -94 222 -122
328 -37 142 -37 408 0 551 31 121 36 171 16 178 -8 3 -11 0 -7 -7 4 -6 2 -11
-3 -11 -19 0 -12 19 10 31 12 6 19 7 15 1 -3 -5 0 -12 7 -15 8 -3 30 28 60 85
66 125 133 224 189 281 51 51 58 63 32 53 -10 -4 -6 6 11 26 27 31 27 44 6
100 -11 30 -57 75 -85 84 -11 4 -23 9 -26 13 -10 12 -52 32 -46 22 4 -6 0 -26
-9 -45 -15 -32 -15 -37 0 -66 9 -18 34 -51 55 -74 49 -53 52 -75 15 -125 -37
-49 -59 -62 -45 -25 13 34 14 33 -17 25 -25 -7 -54 -51 -33 -51 6 0 10 -7 10
-15 0 -26 -35 -17 -86 22 -47 36 -137 69 -156 57 -6 -4 -8 -17 -5 -30 2 -15
-3 -30 -14 -40 -13 -11 -16 -21 -9 -29 6 -7 4 -20 -4 -37 -13 -25 -13 -25 13
-12 36 19 64 17 94 -6 74 -58 24 -173 -69 -156 -19 4 -34 12 -34 17 0 6 -10 8
-22 4 -15 -4 -19 -3 -10 3 14 9 2 54 -17 67 -7 4 -8 0 -4 -11 4 -12 3 -15 -5
-10 -8 4 -12 0 -13 -11 0 -16 -1 -16 -9 2 -8 18 -9 17 -9 -7 -1 -14 5 -29 12
-31 7 -3 5 -6 -5 -6 -10 -1 -18 5 -18 12 -1 20 -30 -63 -46 -133 -47 -205 -56
-281 -51 -455 5 -180 14 -227 85 -451 27 -84 115 -268 123 -259 2 2 44 -49 92
-113 48 -64 99 -133 114 -152 14 -19 3 -10 -25 20 -28 30 -70 83 -94 117 -24
35 -48 61 -54 59 -7 -3 -10 4 -7 17 3 16 2 18 -5 8 -7 -10 -19 0 -49 45 -22
33 -45 73 -52 91 -7 18 -17 31 -23 30 -5 -1 -23 24 -40 55 -29 56 -48 67 -48
27 0 -10 -4 -19 -10 -19 -5 0 -10 6 -10 13 0 7 -9 31 -19 53 -84 175 -127 481
-102 719 41 381 195 706 455 967 285 285 622 432 1016 445 185 6 317 -10 498
-62 253 -72 501 -233 700 -455 197 -219 291 -402 368 -710 32 -131 44 -400 24
-539 -23 -158 -105 -427 -119 -388 -5 13 -9 9 -19 -16 -8 -17 -18 -42 -24 -54
-6 -11 -7 -26 -4 -32 4 -6 -1 -25 -10 -43 -15 -30 -18 -31 -24 -13 -7 20 -7
20 -13 0 l-6 -20 2 20 c2 13 9 19 21 17 14 -3 16 0 7 17 -6 11 -11 26 -10 33
0 7 5 2 10 -11 12 -30 19 -24 12 10 -3 18 -10 26 -21 24 -10 -2 -17 -4 -17 -5
0 -1 -8 -3 -17 -5 -24 -4 -23 6 11 84 45 101 100 329 110 450 13 156 -15 431
-43 431 -7 0 -17 20 -23 45 -6 25 -6 45 -1 45 4 0 -1 18 -12 40 -11 22 -18 40
-15 40 7 0 -26 80 -48 115 -17 28 -18 28 -13 5 6 -25 6 -25 -5 -2 -7 12 -16
22 -21 22 -4 0 -8 7 -8 16 0 13 3 14 14 5 11 -9 11 -5 -2 23 -15 32 -17 34
-61 29 -25 -2 -65 -13 -88 -25 -40 -18 -83 -63 -83 -86 0 -5 -7 -13 -16 -16
-12 -5 -15 -2 -10 11 4 10 4 14 0 10 -4 -4 -13 -2 -21 4 -8 7 -13 8 -13 1 0
-5 7 -15 15 -22 30 -25 108 -208 137 -320 35 -137 49 -351 29 -466 -47 -274
-143 -474 -306 -639 l-74 -75 77 -66 c42 -37 90 -77 105 -91 15 -13 33 -21 40
-17 7 4 9 4 5 -1 -11 -11 12 -36 25 -28 5 3 7 1 3 -5 -3 -6 -2 -13 3 -16 5 -3
11 3 14 14 3 11 11 20 17 20 7 0 9 -7 6 -15 -3 -8 -8 -21 -11 -28 -6 -14 81
-91 94 -83 5 3 8 -1 7 -8 0 -8 26 -38 59 -65 l59 -51 76 0 c44 0 110 9 154 20
107 27 462 30 546 5 71 -22 222 -98 281 -141 26 -19 49 -34 53 -34 10 0 41
-35 75 -84 21 -30 38 -45 47 -42 13 5 16 1 18 -33 2 -19 30 -35 50 -28 12 5
15 14 11 30 -5 17 -2 26 9 30 9 4 16 16 16 27 0 11 7 20 15 20 11 0 15 11 15
40 0 34 3 40 22 40 12 0 43 18 69 40 47 40 48 40 131 40 109 0 259 17 320 35
27 8 55 12 63 8 8 -3 15 0 15 5 0 10 24 17 87 25 12 2 25 6 29 10 3 3 20 3 37
0 23 -5 28 -3 22 7 -5 8 -4 11 3 6 6 -4 19 -2 29 3 10 5 50 21 88 36 129 50
210 89 245 120 19 17 57 48 83 69 56 45 141 149 185 226 74 132 126 376 90
424 -15 19 -58 27 -178 29 -54 2 -66 5 -74 22 -8 18 -10 17 -15 -10 l-7 -30
-8 25 c-4 14 -9 30 -11 36 -17 68 -128 223 -184 258 -91 58 -248 81 -370 55
-105 -22 -200 -145 -209 -270 -4 -63 -2 -74 29 -134 18 -36 37 -65 41 -65 4 0
8 -8 8 -17 -1 -16 -2 -16 -16 2 -11 14 -18 16 -21 8 -3 -7 -9 -13 -14 -13 -6
0 -7 6 -3 13 4 6 -10 -4 -30 -23 -20 -19 -34 -40 -32 -47 3 -7 -1 -13 -9 -13
-10 0 -15 -11 -15 -35 0 -21 -5 -35 -12 -35 -10 0 -9 -3 1 -9 9 -6 11 -18 6
-40 -6 -28 -4 -33 14 -38 11 -3 18 -9 15 -14 -3 -5 0 -9 7 -9 7 0 10 -3 7 -6
-9 -9 -86 43 -133 90 -70 71 -151 212 -170 295 -8 38 -25 50 -26 19 -1 -20 -2
-20 -9 6 -6 19 -5 35 4 50 8 11 16 46 20 76 4 37 2 50 -4 40 -5 -8 -10 -10
-10 -4 0 5 6 19 14 30 9 11 12 29 9 43 -4 16 -2 22 5 17 8 -5 10 -2 6 8 -3 9
-1 16 5 16 6 0 11 5 11 11 0 8 -5 7 -15 -1 -9 -7 -19 -10 -23 -6 -4 4 1 13 11
20 24 18 21 26 -10 27 -23 1 -20 3 15 12 23 5 42 14 42 19 0 5 4 7 9 4 11 -7
23 22 15 35 -3 5 -1 8 4 7 6 -2 10 0 11 5 1 7 16 25 74 85 18 18 32 38 32 44
0 6 7 13 15 15 13 4 13 3 0 -6 -8 -6 -10 -11 -4 -11 6 0 21 12 35 27 20 22 21
25 5 19 -16 -6 -17 -4 -6 9 10 12 15 13 20 4 6 -8 19 -5 49 12 22 12 41 26 41
31 0 4 7 5 15 2 8 -4 15 -2 15 3 0 5 6 10 13 10 6 0 48 10 92 23 81 22 241 35
250 21 2 -5 25 -7 50 -5 24 1 47 -2 50 -7 3 -5 -1 -6 -9 -3 -9 3 -16 4 -16 1
0 -3 33 -15 73 -26 39 -12 84 -28 99 -36 30 -17 62 -10 54 12 -3 8 -6 35 -6
59 0 27 -4 43 -10 39 -5 -3 -7 0 -4 9 12 32 -58 412 -106 572 -83 272 -139
424 -196 534 -19 35 -34 69 -34 75 0 5 -23 58 -51 117 -33 67 -59 108 -70 111
-11 3 -19 1 -19 -4 0 -5 -292 -9 -671 -9 -369 0 -676 -3 -682 -7 -6 -3 -7 -1
-3 6 6 8 1 10 -17 6 -22 -6 -26 -3 -33 27 -11 52 -8 201 6 244 33 101 125 195
229 235 122 47 252 34 362 -36 l54 -34 7 87 c9 119 68 241 158 326 73 70 74
66 -24 175 -36 40 -66 79 -66 85 1 6 44 40 97 76 108 73 193 139 333 259 52
45 138 116 190 160 134 110 135 111 68 111 -57 0 -103 -22 -94 -46 7 -19 -47
-70 -113 -105 -112 -60 -180 -106 -286 -194 -59 -49 -142 -115 -184 -147 -42
-32 -98 -76 -126 -97 -58 -45 -195 -185 -195 -199 0 -15 -60 -56 -108 -75 -54
-22 -52 -22 -52 16 0 44 26 83 101 153 168 157 219 209 217 220 -2 6 -41 41
-88 78 -47 36 -89 69 -95 73 -80 64 -380 262 -421 279 -32 13 -33 13 -69 -29
l-37 -42 21 39 c12 21 20 45 17 51 -2 7 -31 29 -63 49 l-59 36 35 72 36 72 0
141 0 141 -43 86 c-23 48 -46 89 -50 92 -5 3 -10 -14 -10 -38z m-1184 -381
c15 -55 15 -65 2 -65 -15 0 -40 56 -40 89 0 45 24 30 38 -24z m-420 0 c38 -32
49 -62 61 -160 6 -51 15 -83 25 -91 9 -6 53 -21 99 -33 79 -21 162 -69 146
-85 -3 -4 -24 -9 -45 -11 -46 -6 -133 -23 -191 -37 -46 -11 -79 -40 -67 -59 4
-8 3 -10 -5 -5 -8 6 -10 0 -5 -18 3 -15 2 -26 -4 -26 -5 0 -7 -12 -4 -26 3
-18 1 -25 -6 -20 -10 6 -32 -72 -32 -115 0 -11 -7 -22 -15 -25 -8 -4 -12 -11
-8 -18 3 -6 2 -8 -2 -3 -10 9 -14 32 -18 117 -3 76 -34 167 -62 186 -20 13
-176 44 -221 44 -16 0 -24 -6 -24 -17 0 -15 2 -16 10 -3 6 9 10 10 10 3 0 -22
-19 -23 -33 -3 -34 49 11 91 119 116 98 21 121 42 136 119 21 113 30 138 58
167 35 34 41 35 78 3z m1514 -57 c-7 -7 -12 -8 -12 -2 0 14 12 26 19 19 2 -3
-1 -11 -7 -17z m-892 -8 c6 -11 7 -20 2 -20 -6 0 -12 9 -15 20 -3 11 -3 20 -1
20 2 0 8 -9 14 -20z m840 0 c0 -5 -4 -10 -10 -10 -5 0 -10 5 -10 10 0 6 5 10
10 10 6 0 10 -4 10 -10z m-75 -10 c3 -6 -1 -7 -9 -4 -18 7 -21 14 -7 14 6 0
13 -4 16 -10z m73 -38 c6 -19 -22 -3 -37 20 -14 22 -13 22 10 7 12 -9 25 -21
27 -27z m-1005 -7 c22 -47 21 -65 -3 -65 -12 0 -21 8 -25 23 -17 79 -1 103 28
42z m967 1 c0 -3 -4 -8 -10 -11 -5 -3 -10 -1 -10 4 0 6 5 11 10 11 6 0 10 -2
10 -4z m-858 -208 c29 -26 68 -86 68 -105 0 -26 -30 -12 -69 33 -23 27 -41 57
-41 70 0 30 10 30 42 2z m1147 -90 c-24 -33 -114 -115 -154 -139 -35 -22 -79
-25 -73 -6 3 6 35 35 73 63 37 28 86 70 107 93 32 33 42 38 52 28 11 -10 10
-17 -5 -39z m-1864 -26 c-3 -3 -11 0 -18 7 -9 10 -8 11 6 5 10 -3 15 -9 12
-12z m405 -2 c-8 -5 -28 -9 -45 -9 -30 2 -30 2 5 9 51 11 57 11 40 0z m-452
-17 c2 -7 -1 -13 -8 -13 -6 0 -8 5 -4 11 4 8 -4 9 -27 4 -26 -5 -30 -4 -19 4
19 14 52 10 58 -6z m365 0 c-7 -2 -21 -2 -30 0 -10 3 -4 5 12 5 17 0 24 -2 18
-5z m615 -76 c39 -38 40 -47 4 -47 -28 0 -94 47 -112 80 -9 16 -6 17 33 8 23
-6 57 -24 75 -41z m1065 32 c32 -17 66 -61 67 -85 0 -28 -63 -84 -94 -84 -28
0 -96 63 -96 89 0 19 72 91 91 91 6 0 20 -5 32 -11z m-660 -121 c14 -21 -7
-48 -38 -48 -27 0 -35 17 -24 48 10 27 46 27 62 0z m-1808 -118 c0 -27 -6 -37
-25 -47 -30 -15 -63 2 -68 36 -5 34 16 52 57 49 34 -3 36 -5 36 -38z m2163
-22 c7 -7 12 -24 12 -38 0 -32 -50 -101 -68 -95 -7 3 -10 1 -7 -5 3 -5 -17
-33 -45 -63 -28 -30 -67 -81 -86 -113 -20 -32 -39 -61 -42 -64 -4 -3 -23 -25
-42 -50 -19 -25 -62 -73 -95 -108 -45 -47 -66 -61 -79 -56 -10 4 -15 13 -12
23 5 13 4 13 -8 -1 -16 -22 -26 -23 -26 -3 0 8 -4 15 -10 15 -21 0 96 164 169
238 42 42 92 98 110 125 17 26 36 47 41 47 6 0 10 6 10 13 0 13 34 59 87 114
32 34 69 43 91 21z m-570 -85 c-4 -34 -23 -41 -38 -13 -13 25 -6 40 21 40 16
0 20 -6 17 -27z m-1346 -50 c13 -11 18 -30 18 -65 0 -47 -2 -50 -36 -64 -66
-28 -124 3 -124 66 0 51 29 80 82 80 25 0 49 -7 60 -17z m2192 -64 c14 -11 26
-29 26 -40 0 -13 -59 -79 -158 -177 -86 -86 -207 -211 -268 -277 -61 -66 -128
-129 -148 -140 l-36 -20 -22 23 c-22 22 -22 23 -4 56 9 18 54 71 99 117 45 47
123 132 173 189 160 183 267 290 290 290 12 0 33 -9 48 -21z m-852 -6 c28 -32
30 -58 7 -86 -27 -35 -63 -35 -94 -1 -31 33 -32 57 -3 84 27 25 70 26 90 3z
m-176 -220 c-11 -11 -19 6 -11 24 8 17 8 17 12 0 3 -10 2 -21 -1 -24z m1199
-43 c0 -16 -11 -32 -34 -47 -44 -30 -57 -25 -53 17 4 39 26 59 62 56 19 -1 25
-7 25 -26z m-1045 -230 c0 -5 -5 -10 -11 -10 -5 0 -7 5 -4 10 3 6 8 10 11 10
2 0 4 -4 4 -10z m34 -15 c-6 -16 -24 -21 -24 -7 0 11 11 22 21 22 5 0 6 -7 3
-15z m-977 -81 c-3 -3 -12 -4 -19 -1 -8 3 -5 6 6 6 11 1 17 -2 13 -5z m113 -4
c0 -5 -12 -10 -27 -10 -22 0 -25 2 -13 10 20 13 40 13 40 0z m1512 -47 c44
-39 -7 -133 -72 -133 -52 0 -90 56 -70 102 25 55 98 71 142 31z m-1520 -15
c-2 -10 -6 -18 -7 -18 -1 0 -5 8 -7 18 -3 11 0 19 7 19 7 0 10 -8 7 -19z
m-639 -118 c-4 -14 0 -20 11 -20 12 0 16 -10 16 -40 0 -39 -12 -53 -24 -27 -3
6 -3 2 0 -10 5 -21 2 -23 -30 -23 -29 0 -36 4 -36 19 0 11 8 27 17 37 17 16
18 16 25 -7 5 -16 6 -8 4 23 -2 26 1 51 7 57 15 15 16 14 10 -9z m167 -30 c0
-5 -15 -10 -34 -10 -19 0 -38 5 -41 10 -4 6 10 10 34 10 23 0 41 -4 41 -10z
m37 4 c-3 -3 -12 -4 -19 -1 -8 3 -5 6 6 6 11 1 17 -2 13 -5z m763 -4 c0 -5 -2
-10 -4 -10 -3 0 -8 5 -11 10 -3 6 -1 10 4 10 6 0 11 -4 11 -10z m-662 -109
c124 13 353 7 487 -15 255 -40 493 -134 682 -268 149 -106 214 -165 238 -214
9 -18 30 -41 48 -50 18 -9 40 -23 49 -31 9 -8 21 -12 27 -8 7 4 8 0 4 -11 -5
-14 -3 -16 11 -11 9 4 15 3 12 -2 -3 -5 18 -39 46 -77 160 -213 257 -425 324
-709 22 -94 26 -137 29 -295 3 -180 -10 -350 -27 -350 -4 0 -6 -17 -2 -38 14
-88 -117 -491 -180 -554 -10 -10 -15 -18 -12 -18 3 0 -9 -23 -26 -52 -19 -31
-34 -46 -36 -38 -3 8 0 16 7 18 6 2 11 15 11 28 0 14 4 22 10 19 6 -3 10 -2
10 4 0 5 3 17 7 27 5 13 3 15 -7 9 -9 -5 -11 -4 -6 4 4 6 11 9 16 6 9 -6 20
18 20 45 0 27 21 70 31 64 9 -5 13 15 10 48 -1 9 16 70 38 135 38 113 45 142
55 208 17 115 26 148 47 165 12 10 -9 328 -29 430 -52 270 -147 515 -274 703
-115 170 -207 271 -368 403 -260 212 -622 345 -983 361 -173 8 -326 -8 -507
-53 -149 -36 -357 -119 -430 -172 -25 -18 -85 -60 -135 -94 -84 -58 -211 -176
-281 -264 -118 -148 -245 -373 -305 -544 -88 -247 -130 -583 -99 -790 12 -77
4 -147 -16 -147 -15 0 -27 51 -45 192 -31 238 39 643 153 895 76 167 137 276
195 346 18 23 33 44 33 48 0 4 7 14 15 23 8 8 13 18 10 22 -2 5 12 13 33 20
25 7 46 25 65 51 15 22 27 44 27 48 0 22 191 181 298 247 18 12 29 25 25 30
-4 4 -3 5 3 2 7 -4 33 5 58 19 45 25 62 42 30 30 -9 -3 -12 -2 -8 5 3 6 16 8
27 5 11 -3 53 8 91 23 104 41 315 101 360 101 20 0 20 0 0 16 -18 14 -18 15 4
4 16 -8 51 -8 130 1z m-191 -17 c-3 -3 -12 -4 -19 -1 -8 3 -5 6 6 6 11 1 17
-2 13 -5z m-817 -8 c0 -2 -8 -10 -17 -17 -16 -13 -17 -12 -4 4 13 16 21 21 21
13z m543 -13 c-7 -2 -19 -2 -25 0 -7 3 -2 5 12 5 14 0 19 -2 13 -5z m1807 -25
c0 -6 -6 -5 -15 2 -8 7 -15 14 -15 16 0 2 7 1 15 -2 8 -4 15 -11 15 -16z
m-1760 -4 c15 -9 17 -12 5 -8 -27 11 -86 10 -110 -1 -17 -8 -18 -7 -5 8 19 21
77 21 110 1z m-543 0 c-3 -3 -12 -4 -19 -1 -8 3 -5 6 6 6 11 1 17 -2 13 -5z
m74 -21 c13 -15 12 -15 -8 -4 -24 12 -29 21 -14 21 5 0 15 -7 22 -17z m454 -1
c-3 -3 -11 0 -18 7 -9 10 -8 11 6 5 10 -3 15 -9 12 -12z m1850 -9 c26 -12 36
-24 40 -47 6 -40 2 -85 -7 -80 -4 3 -6 -8 -4 -23 2 -22 -1 -29 -15 -29 -17 0
-17 1 -1 19 16 18 14 18 -23 -2 -57 -30 -82 -27 -121 16 -36 39 -40 56 -25 96
24 64 86 83 156 50z m-2518 -12 c0 -11 -7 -17 -14 -14 -9 4 -9 8 0 19 16 17
16 17 14 -5z m493 -21 c-8 -5 -22 -9 -30 -9 -10 0 -8 3 5 9 27 12 43 12 25 0z
m77 4 c-3 -3 -12 -4 -19 -1 -8 3 -5 6 6 6 11 1 17 -2 13 -5z m3200 -96 c6 -7
13 -42 17 -78 7 -76 20 -90 85 -90 61 0 95 -18 99 -52 4 -36 -26 -54 -102 -61
-32 -3 -63 -10 -68 -15 -5 -5 -13 -38 -18 -73 -9 -65 -26 -89 -62 -89 -24 0
-38 31 -48 103 -5 33 -15 64 -22 68 -7 5 -35 9 -63 9 -64 0 -99 18 -103 51 -4
37 17 50 99 60 40 5 74 10 76 12 2 2 10 37 17 77 8 40 20 77 28 81 19 13 54
11 65 -3z m841 -60 c16 -13 16 -53 -1 -66 -14 -12 -417 -20 -435 -8 -18 11
-15 73 4 84 22 12 415 3 432 -10z m-4614 -24 c9 -24 7 -27 -9 -10 -17 17 -19
26 -6 26 5 0 12 -7 15 -16z m-224 -26 c0 -6 -3 -9 -6 -5 -9 9 -34 -19 -34 -37
0 -8 -4 -18 -10 -21 -15 -9 -7 37 10 57 16 20 40 24 40 6z m2667 -20 c-3 -8
-6 -5 -6 6 -1 11 2 17 5 13 3 -3 4 -12 1 -19z m-2618 -33 c18 -20 31 -39 27
-42 -3 -4 -6 -1 -6 5 0 7 -4 12 -10 12 -17 0 -11 -14 11 -28 12 -8 18 -9 14
-3 -3 6 -2 11 4 11 14 0 32 -35 23 -45 -4 -3 -2 -6 3 -5 23 5 30 -1 31 -26 2
-28 10 -41 20 -31 4 4 1 15 -7 24 -13 16 -12 17 3 4 13 -9 16 -21 11 -40 -3
-14 -7 -27 -8 -29 -7 -9 -55 44 -51 55 3 8 -2 12 -16 10 -11 -1 -23 5 -25 13
-4 13 -3 13 6 0 5 -8 13 -11 17 -8 3 4 -1 14 -9 22 -11 12 -16 13 -20 3 -6
-19 -39 13 -34 34 3 12 0 16 -9 12 -19 -7 -18 2 2 22 9 9 13 19 10 23 -4 3
-11 0 -17 -8 -8 -13 -10 -13 -20 0 -8 12 -9 10 -5 -10 3 -14 3 -19 0 -12 -5
10 -9 9 -19 -5 -7 -10 -16 -15 -20 -12 -3 4 1 14 10 22 8 9 15 27 15 41 0 37
29 33 69 -9z m262 -18 c5 2 6 -4 3 -12 -5 -12 -11 -9 -27 13 -36 47 -40 58
-11 27 15 -16 31 -29 35 -28z m2 26 c-3 -7 -6 -13 -8 -13 -2 0 -5 6 -8 13 -3
8 1 14 8 14 7 0 11 -6 8 -14z m2427 12 c0 -2 -9 -9 -20 -15 -12 -6 -20 -7 -20
-1 0 5 8 12 18 14 9 3 18 5 20 6 1 0 2 -1 2 -4z m75 -25 c-16 -16 -34 -30 -39
-30 -6 0 -5 4 3 9 9 6 10 11 2 15 -6 4 -15 4 -21 1 -5 -3 -10 -2 -10 3 0 5 11
12 24 14 19 4 23 1 19 -11 -4 -10 2 -8 16 7 12 12 25 22 28 22 4 0 -6 -13 -22
-30z m1598 -278 c17 -19 36 -125 37 -204 0 -54 -2 -53 115 -63 85 -8 135 -26
135 -50 0 -12 -15 -15 -67 -16 -38 0 -97 -2 -133 -5 -36 -3 -86 -1 -112 4 -26
5 -68 6 -95 2 -26 -5 -79 -9 -118 -11 -38 -2 -76 -5 -82 -7 -19 -6 -16 -20 5
-25 14 -4 14 -5 -3 -6 -30 -1 -42 11 -48 46 -9 54 7 63 113 69 148 8 140 3
141 82 1 137 25 202 74 202 12 0 29 -8 38 -18z m-4608 -224 c37 -29 58 -80 46
-111 -15 -38 -59 -67 -102 -67 -53 0 -109 54 -109 106 0 79 100 123 165 72z
m3566 5 c36 -21 62 -74 53 -108 -10 -41 -68 -85 -112 -85 -41 0 -60 11 -86 50
-42 63 13 158 92 160 13 0 37 -8 53 -17z m1682 -49 c30 -35 38 -50 33 -69 -9
-37 -45 -65 -83 -65 -27 0 -37 6 -53 33 -11 17 -20 40 -20 51 0 22 57 96 73
96 7 -1 29 -21 50 -46z m-2283 -282 c0 -15 -2 -15 -10 -2 -13 20 -13 33 0 25
6 -3 10 -14 10 -23z m48 -37 c-3 -3 -9 2 -12 12 -6 14 -5 15 5 6 7 -7 10 -15
7 -18z m-114 0 c-4 -8 -10 -15 -14 -15 -5 0 -17 -3 -27 -6 -10 -3 -4 3 12 15
36 25 36 25 29 6z m-2431 -50 c-3 -9 -8 -14 -10 -11 -3 3 -2 9 2 15 9 16 15
13 8 -4z m2405 -4 c9 -5 4 -8 -16 -7 -17 1 -28 4 -25 9 6 9 25 9 41 -2z m1446
-34 c33 -27 37 -63 12 -102 -22 -33 -60 -33 -91 1 -30 33 -31 57 -4 95 25 35
45 36 83 6z m-3699 -7 c-13 -14 -14 -20 -5 -20 7 0 11 -2 8 -5 -3 -3 -13 -2
-23 1 -16 6 -15 9 6 25 31 24 36 24 14 -1z m-82 3 c-7 -2 -19 -2 -25 0 -7 3
-2 5 12 5 14 0 19 -2 13 -5z m117 -8 c-7 -9 -15 -13 -19 -10 -3 3 1 10 9 15
21 14 24 12 10 -5z m-82 -21 c6 -2 12 -9 12 -16 0 -9 -3 -9 -12 0 -7 7 -18 12
-26 12 -12 0 -12 -3 -2 -15 10 -12 10 -15 -1 -16 -8 0 -3 -5 11 -10 19 -8 27
-6 36 6 10 14 12 14 18 0 3 -8 11 -14 18 -13 8 2 12 -6 10 -21 -3 -31 -8 -36
-24 -24 -7 6 -46 16 -85 23 -40 7 -73 16 -73 20 0 4 16 11 35 14 33 7 49 25
23 27 -9 0 -9 2 1 6 11 5 11 7 0 15 -13 8 22 4 59 -8z m2499 -99 c-4 -8 -12
-15 -19 -14 -10 0 -10 2 0 6 6 2 12 12 12 21 0 8 3 13 6 9 4 -3 4 -13 1 -22z
m2070 -21 c-3 -3 -12 -4 -19 -1 -8 3 -5 6 6 6 11 1 17 -2 13 -5z m-448 -18 c6
-8 10 -31 9 -52 -3 -36 -6 -39 -34 -41 -19 -2 -37 3 -44 12 -16 19 -16 61 0
80 16 19 54 19 69 1z m644 7 c-7 -2 -21 -2 -30 0 -10 3 -4 5 12 5 17 0 24 -2
18 -5z m-2356 -19 c-3 -3 -12 -4 -19 -1 -8 3 -5 6 6 6 11 1 17 -2 13 -5z m-37
-8 c0 -2 -9 -6 -20 -9 -11 -3 -18 -1 -14 4 5 9 34 13 34 5z m1865 -44 c-3 -3
-11 0 -18 7 -9 10 -8 11 6 5 10 -3 15 -9 12 -12z m-4982 -16 c63 -26 86 -95
52 -154 -33 -56 -89 -67 -146 -28 -70 48 -73 116 -7 171 34 28 55 31 101 11z
m3887 -1 c60 -31 77 -92 41 -151 -23 -38 -89 -61 -123 -43 -35 17 -69 51 -79
77 -20 51 48 132 109 132 13 0 36 -7 52 -15z m720 -96 c36 -66 -45 -126 -86
-63 -22 33 -9 76 26 84 31 8 48 3 60 -21z m-443 -91 c-2 -13 -4 -3 -4 22 0 25
2 35 4 23 2 -13 2 -33 0 -45z m478 -207 c3 -5 1 -12 -5 -16 -5 -3 -10 1 -10 9
0 18 6 21 15 7z m-4400 -191 c10 -47 18 -91 18 -97 0 -7 4 -13 9 -13 4 0 8
-11 8 -24 0 -14 5 -28 10 -31 6 -4 8 -10 6 -14 -3 -4 4 -20 15 -37 10 -16 19
-36 19 -46 0 -9 3 -18 8 -20 8 -4 38 -63 47 -95 5 -18 3 -22 -9 -17 -10 4 -16
1 -16 -7 0 -7 -7 -3 -17 10 -12 17 -13 28 -6 40 11 18 -2 71 -19 71 -5 0 -7 8
-4 18 4 10 -1 27 -9 38 -11 15 -14 16 -15 4 0 -9 5 -21 12 -28 9 -9 9 -12 1
-12 -7 0 -14 10 -18 23 -3 12 -10 31 -15 42 -4 11 -14 48 -21 82 -7 35 -16 58
-20 52 -3 -6 -8 2 -10 17 -5 29 1 138 6 132 1 -2 10 -41 20 -88z m5231 -15 c3
-13 4 -30 1 -37 -3 -7 -6 -1 -6 15 -1 15 -5 27 -11 27 -5 0 -10 5 -10 10 0 20
20 9 26 -15z m-7706 -55 c8 -5 11 -12 7 -16 -3 -4 -13 -2 -21 5 -11 9 -15 9
-19 -1 -2 -7 -8 -10 -12 -6 -9 9 3 28 18 28 7 0 19 -4 27 -10z m50 -28 c0 -4
-9 -8 -21 -9 -17 -2 -18 1 -9 12 12 14 30 12 30 -3z m438 -6 c2 -10 -2 -23 -8
-30 -10 -8 -11 -7 -8 4 3 8 1 23 -4 34 -8 14 -7 17 4 14 7 -3 15 -13 16 -22z
m-498 0 c0 -3 -4 -8 -10 -11 -5 -3 -10 -1 -10 4 0 6 5 11 10 11 6 0 10 -2 10
-4z m-40 -21 c-7 -9 -15 -13 -19 -10 -3 3 1 10 9 15 21 14 24 12 10 -5z m70
-5 c0 -5 -5 -10 -11 -10 -5 0 -7 5 -4 10 3 6 8 10 11 10 2 0 4 -4 4 -10z m48
-10 c-7 -11 -16 -20 -20 -20 -11 0 -10 9 5 25 18 21 29 18 15 -5z m52 10 c0
-5 -2 -10 -4 -10 -3 0 -8 5 -11 10 -3 6 -1 10 4 10 6 0 11 -4 11 -10z m114 1
c3 -5 -8 -11 -24 -13 -37 -6 -64 8 -29 15 41 7 48 7 53 -2z m161 2 c-22 -3
-43 -10 -47 -16 -5 -8 -8 -8 -8 -1 0 19 12 24 54 22 l41 -1 -40 -4z m6378 -22
c-5 -20 -50 -67 -57 -60 -11 11 9 62 28 69 31 13 35 12 29 -9z m22 -15 c-10
-14 -21 -26 -27 -26 -5 0 0 10 12 22 11 12 20 26 20 32 0 5 3 7 6 4 3 -4 -2
-18 -11 -32z m-6695 4 c0 -5 -4 -10 -10 -10 -5 0 -10 5 -10 10 0 6 5 10 10 10
6 0 10 -4 10 -10z m45 0 c3 -5 -1 -10 -9 -10 -9 0 -16 5 -16 10 0 6 4 10 9 10
6 0 13 -4 16 -10z m6236 -78 c-5 -26 -12 -54 -14 -62 -2 -8 -2 -12 0 -7 10 16
24 6 18 -13 -7 -21 10 -28 18 -7 3 6 6 1 6 -12 1 -17 5 -21 17 -17 9 3 12 2 9
-5 -4 -6 -19 -7 -36 -4 -40 9 -37 -2 4 -14 31 -9 31 -9 5 -10 -39 -1 -78 16
-78 34 0 9 9 36 20 59 11 24 23 63 26 87 4 24 9 38 12 31 2 -6 -1 -33 -7 -60z
m370 11 c-12 -20 -14 -14 -5 12 4 9 9 14 11 11 3 -2 0 -13 -6 -23z m-354 -50
c-3 -10 -5 -4 -5 12 0 17 2 24 5 18 2 -7 2 -21 0 -30z m-874 2 c-3 -9 -8 -14
-10 -11 -3 3 -2 9 2 15 9 16 15 13 8 -4z m-2965 -74 c-8 -13 -6 -25 6 -49 19
-36 14 -45 -6 -9 -6 12 -13 42 -13 66 -2 38 0 42 11 26 9 -12 10 -22 2 -34z
m-984 23 c26 -25 17 -47 -26 -63 -34 -13 -384 -14 -407 -1 -20 10 -32 42 -22
58 9 16 50 19 253 21 158 1 189 -1 202 -15z m960 1 c3 -8 1 -15 -4 -15 -6 0
-10 7 -10 15 0 8 2 15 4 15 2 0 6 -7 10 -15z m2800 -93 c-13 -9 -28 -43 -26
-62 1 -11 0 -11 -4 -2 -5 10 -10 9 -21 -5 -14 -16 -14 -15 -1 7 8 14 20 35 27
48 6 12 17 22 24 22 8 0 9 -3 1 -8z m-2694 -22 c0 -5 -5 -10 -11 -10 -5 0 -7
5 -4 10 3 6 8 10 11 10 2 0 4 -4 4 -10z m-1594 -38 c6 -4 19 -22 28 -39 10
-20 31 -39 51 -47 52 -22 43 -76 -12 -76 -16 0 -31 -12 -48 -40 -28 -44 -38
-48 -60 -22 -30 34 -52 57 -73 74 -31 25 -27 51 8 66 17 8 30 20 30 28 0 16
43 64 57 64 4 0 13 -4 19 -8z m1203 -87 c0 -5 -4 -3 -9 5 -5 8 -9 22 -9 30 0
16 17 -16 18 -35z m467 -20 c14 -27 14 -28 -1 -11 -8 11 -15 24 -15 29 0 4 -4
6 -9 3 -5 -3 -11 6 -14 21 -5 26 -4 27 10 8 8 -11 21 -33 29 -50z m2544 62 c0
-2 -10 -12 -22 -23 l-23 -19 19 23 c18 21 26 27 26 19z m1740 -12 c9 -10 9
-15 1 -15 -6 0 -11 4 -11 9 0 5 -8 12 -17 14 -15 4 -15 5 -2 6 9 0 22 -6 29
-14z m-25 -15 c3 -5 -3 -10 -15 -10 -12 0 -18 5 -15 10 3 6 10 10 15 10 5 0
12 -4 15 -10z m-4970 -51 c22 -4 56 -15 75 -23 38 -16 93 -64 85 -75 -2 -4 5
-14 16 -21 10 -8 19 -23 19 -33 0 -10 4 -16 9 -13 5 3 8 -2 7 -12 0 -9 4 -16
10 -15 6 1 18 -14 27 -33 9 -18 13 -34 8 -34 -5 0 -14 12 -19 28 l-10 27 -1
-32 c-1 -29 2 -33 24 -33 14 0 25 -4 25 -10 0 -5 -11 -10 -25 -10 -26 0 -44
24 -46 62 -1 13 -5 -2 -10 -32 -5 -30 -14 -59 -19 -64 -10 -10 -90 10 -90 23
0 10 -91 31 -134 31 -17 0 -57 -7 -88 -15 -45 -11 -66 -24 -99 -60 -23 -25
-45 -43 -48 -40 -3 4 1 11 9 16 13 9 13 10 0 6 -8 -2 -15 -10 -15 -18 0 -15
-33 -89 -40 -89 -2 0 -2 7 1 15 10 24 -12 17 -24 -7 -6 -13 -11 -17 -11 -10
-1 10 -6 10 -22 1 -12 -6 -38 -9 -58 -5 -26 4 -32 3 -21 -5 11 -7 3 -8 -25 -3
-50 8 -61 19 -68 67 -5 29 -3 37 10 37 13 0 13 3 3 15 -10 12 -10 19 -2 27 15
15 16 42 2 33 -5 -3 -10 -1 -10 5 0 6 -4 8 -10 5 -33 -20 23 84 78 145 64 72
196 147 278 159 60 9 138 6 209 -10z m685 6 c0 -8 -2 -15 -4 -15 -2 0 -6 7
-10 15 -3 8 -1 15 4 15 6 0 10 -7 10 -15z m2903 0 c-3 -9 -8 -14 -10 -11 -3 3
-2 9 2 15 9 16 15 13 8 -4z m1068 -64 c27 -28 37 -45 32 -57 -5 -13 -3 -16 10
-11 18 7 20 3 11 -29 -4 -15 -11 -20 -25 -17 -10 3 -19 9 -19 14 0 15 -40 10
-70 -8 -24 -14 -34 -15 -55 -5 -15 7 -31 10 -36 6 -6 -3 -7 7 -4 25 6 35 3 38
-20 15 -9 -9 -18 -14 -21 -12 -6 7 43 58 56 58 6 0 18 16 27 36 15 31 21 35
46 30 16 -3 46 -24 68 -45z m-3476 -82 c11 -16 1 -19 -13 -3 -7 8 -8 14 -3 14
5 0 13 -5 16 -11z m-970 -149 c3 -5 1 -10 -4 -10 -6 0 -11 5 -11 10 0 6 2 10
4 10 3 0 8 -4 11 -10z m4450 -410 c-3 -5 -12 -10 -18 -10 -7 0 -6 4 3 10 19
12 23 12 15 0z m-5605 -54 c0 -3 -4 -8 -10 -11 -5 -3 -10 -1 -10 4 0 6 5 11
10 11 6 0 10 -2 10 -4z m348 -136 c13 -19 39 -41 58 -48 28 -12 34 -19 34 -44
0 -23 -6 -31 -31 -40 -17 -6 -41 -27 -55 -49 -20 -32 -27 -37 -45 -30 -12 4
-27 22 -33 42 -6 19 -18 34 -26 34 -8 0 -25 4 -38 9 -19 6 -23 14 -20 44 2 30
7 38 26 40 13 2 26 11 29 20 12 29 47 63 62 60 9 -2 26 -19 39 -38z m-342 -87
c-2 -16 -5 -32 -6 -38 -1 -5 -1 -12 0 -15 1 -3 3 -16 4 -30 1 -14 5 -50 9 -80
l7 -55 -15 50 c-8 28 -16 69 -17 92 -2 24 -6 43 -10 43 -14 0 -9 23 9 42 21
24 23 23 19 -9z m-179 -30 c-3 -10 -5 -2 -5 17 0 19 2 27 5 18 2 -10 2 -26 0
-35z m10 -55 c-3 -7 -5 -2 -5 12 0 14 2 19 5 13 2 -7 2 -19 0 -25z m-430 -44
c-3 -3 -12 -4 -19 -1 -8 3 -5 6 6 6 11 1 17 -2 13 -5z m-37 -54 c0 -20 -15
-25 -44 -14 -13 5 -14 9 -5 20 18 21 49 17 49 -6z m30 6 c0 -3 -4 -8 -10 -11
-5 -3 -10 -1 -10 4 0 6 5 11 10 11 6 0 10 -2 10 -4z m627 -78 c-3 -7 -5 -2 -5
12 0 14 2 19 5 13 2 -7 2 -19 0 -25z"/>
<path d="M6606 8171 c-3 -5 0 -11 7 -14 8 -3 14 1 14 9 0 16 -13 19 -21 5z"/>
<path d="M3945 5630 c3 -5 8 -10 11 -10 2 0 4 5 4 10 0 6 -5 10 -11 10 -5 0
-7 -4 -4 -10z"/>
<path d="M3380 4890 c0 -5 5 -10 11 -10 5 0 7 5 4 10 -3 6 -8 10 -11 10 -2 0
-4 -4 -4 -10z"/>
<path d="M7215 9171 c-53 -24 -72 -47 -85 -104 -28 -126 92 -215 215 -158 55
25 76 52 82 105 7 55 -20 104 -80 147 -46 34 -76 36 -132 10z"/>
<path d="M1335 9136 c16 -16 17 -18 3 -13 -24 9 -45 15 -35 10 4 -3 5 -9 2
-14 -7 -10 32 -52 58 -62 9 -3 17 -11 17 -17 0 -6 6 -8 13 -4 6 4 9 3 4 -1 -8
-9 20 -45 35 -45 5 0 21 -14 36 -31 14 -17 78 -79 141 -137 107 -97 243 -236
333 -341 57 -66 181 -174 305 -266 116 -87 162 -115 188 -115 23 0 18 -15 -12
-42 -16 -13 -59 -59 -97 -103 -38 -44 -73 -81 -77 -83 -5 -2 5 -27 21 -56 17
-29 39 -88 50 -131 22 -85 27 -220 9 -231 -6 -3 -9 -18 -6 -32 6 -33 -14 -142
-26 -142 -5 0 -6 -7 -3 -16 8 -21 -14 -50 -24 -34 -4 7 -9 2 -12 -13 -4 -19
-1 -24 10 -20 11 5 10 -2 -4 -27 -45 -79 -42 -76 -48 -57 -4 9 -9 25 -13 35
-3 9 -5 20 -5 25 1 4 -7 7 -18 7 -11 0 -20 5 -20 10 0 6 -6 10 -14 10 -10 0
-12 14 -10 58 1 31 -2 63 -8 69 -6 7 -8 19 -5 27 3 8 1 16 -5 18 -13 5 -2 28
13 28 5 0 14 -10 19 -22 7 -18 9 -19 9 -5 1 9 8 17 16 17 8 0 15 7 15 15 0 8
-9 15 -19 15 -11 0 -21 5 -23 10 -4 12 -59 24 -56 13 1 -8 -19 -63 -24 -63 -2
0 -2 39 0 86 8 203 -105 397 -282 484 -202 100 -437 65 -597 -87 -223 -213
-222 -554 3 -758 90 -81 175 -121 283 -135 126 -16 190 -29 108 -22 -63 5 -63
5 -63 -22 0 -23 -4 -26 -33 -26 -77 0 -230 62 -292 118 -64 59 -143 165 -137
185 2 5 -3 7 -10 4 -7 -2 -18 5 -25 17 -11 19 -12 18 -13 -18 0 -35 -2 -38
-24 -34 -15 3 -27 0 -30 -8 -3 -8 -12 -14 -19 -14 -8 0 -20 -6 -26 -14 -14
-17 5 -27 41 -20 12 2 16 1 8 -2 -8 -4 -19 -12 -23 -18 -6 -8 -10 -7 -14 2 -4
10 -8 10 -19 1 -11 -9 -14 -8 -14 5 0 9 -4 16 -9 16 -5 0 -13 9 -16 21 -4 11
-9 18 -12 15 -3 -3 16 -40 42 -82 54 -86 155 -191 230 -239 113 -73 277 -125
389 -125 31 0 56 -1 56 -3 0 -1 -14 -38 -31 -82 -49 -127 -116 -320 -155 -445
-70 -228 -85 -283 -79 -304 4 -14 3 -17 -3 -8 -10 15 -22 -28 -22 -80 0 -19
-4 -27 -12 -22 -6 4 -8 3 -5 -3 4 -6 2 -25 -4 -44 -11 -38 -26 -246 -30 -408
l-3 -104 52 -13 c59 -15 92 -34 140 -78 l32 -30 0 60 c0 114 59 253 137 324
62 57 162 119 217 135 103 29 182 29 279 1 49 -15 105 -35 125 -45 85 -43 180
-153 227 -261 15 -33 20 -67 20 -130 l0 -85 61 46 c79 60 131 74 240 65 47 -4
96 -11 108 -16 22 -8 23 -7 15 33 -8 42 -4 222 7 306 5 40 4 44 -10 32 -9 -8
-16 -24 -16 -37 0 -13 -4 -24 -10 -24 -5 0 -10 -7 -10 -16 0 -8 -4 -13 -9 -9
-5 3 -12 -3 -14 -12 -12 -45 -5 148 8 254 20 153 31 208 66 318 115 368 262
620 513 884 107 111 279 258 391 333 50 34 89 65 87 70 -1 5 2 7 7 4 9 -6 43
11 110 52 13 8 19 17 14 21 -5 3 -17 17 -26 31 -9 14 -54 63 -100 110 -95 97
-180 204 -169 215 4 3 0 5 -8 3 -8 -2 -21 11 -31 29 -9 18 -20 29 -24 25 -4
-4 -2 3 4 16 12 23 31 30 31 11 0 -5 -4 -7 -10 -4 -12 7 -13 -5 -1 -23 6 -11
11 -10 25 3 16 16 56 13 56 -5 0 -4 8 -6 18 -3 12 3 53 -28 131 -99 62 -57
137 -123 167 -148 30 -25 61 -55 70 -67 23 -34 21 -35 234 53 l35 15 -42 -6
c-36 -4 -41 -3 -36 11 4 12 1 15 -14 12 -15 -2 -37 18 -89 82 -37 47 -102 126
-144 175 -42 50 -128 157 -191 239 -63 83 -139 177 -169 211 -108 120 -121
136 -180 220 -69 99 -84 125 -117 214 -50 135 -57 195 -29 251 24 49 12 48
-18 -2 -51 -88 -57 -171 -22 -308 29 -109 73 -199 125 -255 71 -76 122 -145
116 -155 -3 -6 0 -7 9 -4 10 4 16 1 16 -8 0 -7 10 -24 23 -38 12 -14 33 -41
47 -60 13 -19 27 -37 30 -40 3 -3 40 -48 82 -100 42 -52 107 -131 143 -175 37
-44 73 -91 80 -105 12 -23 11 -26 -5 -26 -11 0 -16 6 -13 14 3 7 1 12 -5 10
-5 -2 -46 34 -90 78 -44 45 -93 90 -110 99 -16 10 -37 32 -46 49 -42 79 -60
106 -71 104 -15 -4 -62 37 -101 87 -18 22 -48 57 -68 79 -95 100 -267 298
-316 364 -30 39 -59 72 -64 72 -18 0 -175 -98 -256 -159 -41 -31 -94 -69 -116
-84 -23 -15 -52 -39 -64 -52 l-23 -24 49 -58 c59 -70 219 -248 323 -359 243
-259 279 -306 250 -325 -28 -18 -49 -8 -106 51 -32 33 -63 58 -69 56 -6 -2
-46 30 -90 72 -43 42 -98 92 -121 112 -22 19 -74 63 -115 98 -118 101 -208
165 -298 211 -36 19 -105 61 -155 95 -49 34 -112 75 -140 90 -61 35 -95 65
-95 83 0 13 -138 150 -225 224 -22 18 -74 65 -116 104 -42 38 -108 95 -148
125 -63 48 -187 150 -261 214 -34 29 -61 46 -35 22z m1862 -987 c13 -18 66
-79 117 -134 145 -153 325 -359 319 -365 -3 -3 -8 1 -11 9 -3 10 -10 8 -24
-10 l-19 -24 11 23 c11 22 10 23 -10 12 -12 -6 -24 -9 -28 -6 -3 3 1 6 9 6 8
0 -1 8 -18 16 -18 9 -33 21 -33 26 0 5 10 2 22 -6 12 -9 29 -16 38 -16 14 1
-44 32 -65 35 -5 0 -9 7 -7 13 2 10 -3 10 -18 2 -16 -9 -18 -8 -14 5 4 10 0
15 -12 15 -9 0 -100 83 -201 184 -198 199 -208 216 -162 265 20 22 21 22 52 3
18 -10 42 -34 54 -53z m513 -139 c0 -5 -4 -10 -10 -10 -5 0 -10 5 -10 10 0 6
5 10 10 10 6 0 10 -4 10 -10z m-2071 -174 c126 -34 221 -149 237 -290 8 -63 0
-76 -43 -76 -15 0 -28 -10 -38 -30 -9 -18 -20 -28 -27 -24 -7 5 -9 2 -5 -8 4
-12 1 -14 -14 -11 -12 4 -19 0 -19 -9 0 -8 -16 -22 -35 -31 -19 -9 -35 -12
-35 -7 0 13 -47 13 -55 0 -3 -5 1 -10 9 -10 9 0 16 -5 16 -11 0 -7 -11 -9 -29
-6 -16 3 -31 3 -35 0 -3 -4 -16 -7 -29 -8 -12 -1 -29 -4 -37 -7 -8 -3 -12 -3
-7 -1 18 11 -7 21 -38 16 -28 -4 -35 -2 -35 11 0 9 -8 16 -17 16 -15 0 -16 2
-3 10 10 6 11 10 3 10 -7 0 -13 7 -13 15 0 8 -7 15 -15 15 -8 0 -15 4 -15 9 0
15 -79 49 -111 47 -39 -3 -46 24 -29 107 17 83 41 127 96 179 105 99 200 126
323 94z m1301 -22 c0 -2 -9 0 -20 6 -11 6 -20 13 -20 16 0 2 9 0 20 -6 11 -6
20 -13 20 -16z m-160 -117 c43 -19 61 -39 50 -52 -8 -9 -6 -17 4 -28 30 -30 4
-23 -28 8 -19 18 -57 39 -88 48 -29 8 -45 16 -35 16 9 1 17 5 17 10 0 5 -8 11
-17 14 -10 2 2 2 27 0 25 -3 56 -9 70 -16z m88 -77 c10 -17 10 -23 -3 -36 -8
-9 -15 -11 -15 -5 0 5 5 13 11 16 7 5 4 14 -7 26 -9 10 -13 19 -8 19 5 0 15
-9 22 -20z m-1 -92 c-3 -8 -6 -5 -6 6 -1 11 2 17 5 13 3 -3 4 -12 1 -19z
m-163 -7 c13 -14 14 -24 7 -44 -13 -34 -24 -39 -49 -21 -24 17 -30 69 -9 77
23 10 34 7 51 -12z m-247 -53 c-3 -7 -5 -2 -5 12 0 14 2 19 5 13 2 -7 2 -19 0
-25z m15 -50 c-2 -10 -6 -18 -7 -18 -1 0 -5 8 -7 18 -3 11 0 19 7 19 7 0 10
-8 7 -19z m-392 -74 c0 -8 -5 -12 -10 -9 -6 4 -8 11 -5 16 9 14 15 11 15 -7z
m1104 -10 c22 -21 20 -57 -3 -78 -26 -24 -52 -17 -71 17 -14 27 -14 29 13 53
33 28 40 29 61 8z m-1115 -36 c10 -30 9 -31 -4 -14 -8 11 -15 26 -15 33 0 22
8 14 19 -19z m-19 -46 c0 -13 -4 -20 -10 -17 -6 3 -10 -4 -10 -17 0 -13 -10
-38 -22 -54 -37 -49 -87 -104 -95 -104 -5 0 -13 -10 -18 -22 -7 -17 -19 -23
-42 -25 -45 -2 -48 10 -10 40 17 14 46 38 63 53 37 34 124 162 124 184 0 26
20 -11 20 -38z m1288 16 c29 -29 1 -108 -38 -108 -23 0 -50 36 -50 67 0 43 58
71 88 41z m-423 -148 c55 -40 91 -100 100 -170 6 -51 -8 -86 -25 -60 -8 13
-10 12 -10 -3 0 -10 -4 -15 -10 -12 -5 3 -10 -2 -11 -12 0 -16 -1 -16 -8 2 -8
20 -8 20 -15 -1 -7 -24 -46 -63 -46 -47 0 6 7 16 15 23 8 7 15 20 14 29 0 13
-2 13 -6 1 -4 -8 -16 -22 -27 -32 -12 -9 -17 -17 -12 -18 5 0 -4 -10 -19 -22
-20 -16 -42 -21 -86 -22 -42 -1 -58 2 -55 11 3 8 -1 10 -11 6 -10 -4 -14 -2
-10 4 10 15 -14 22 -35 11 -14 -6 -16 -5 -12 7 4 8 1 15 -4 15 -16 0 -25 -19
-15 -33 4 -7 0 -4 -10 7 -13 14 -15 21 -6 27 16 9 1 32 -17 25 -9 -3 -14 0
-13 7 1 6 -1 20 -6 31 -12 27 9 125 36 170 12 21 43 52 68 68 42 27 53 29 116
26 62 -3 77 -7 120 -38z m-475 -20 c0 -5 -4 -10 -9 -10 -6 0 -13 5 -16 10 -3
6 1 10 9 10 9 0 16 -4 16 -10z m-177 -154 c41 -17 97 -80 97 -109 0 -54 -75
-127 -130 -127 -26 0 -95 41 -117 69 -7 9 -13 33 -13 53 0 43 37 93 85 114 38
17 39 17 78 0z m297 -351 c-7 -8 -16 -12 -21 -10 -10 7 0 37 15 47 16 11 20
-20 6 -37z m408 -8 c2 -12 -3 -17 -17 -17 -15 0 -21 6 -21 21 0 25 33 22 38
-4z m-742 -117 c92 -12 177 -42 264 -95 70 -43 86 -61 44 -51 -18 4 -24 3 -16
-2 7 -5 14 -22 16 -38 2 -21 9 -30 25 -32 12 -2 19 -8 15 -13 -3 -5 -11 -6
-17 -3 -7 4 -9 3 -4 -1 4 -5 -1 -18 -10 -29 l-18 -21 23 19 c28 24 65 29 57 8
-3 -9 0 -12 9 -9 9 4 22 -16 41 -64 27 -67 28 -70 10 -89 -25 -27 -41 -25 -66
10 -12 16 -27 26 -32 23 -6 -3 -8 -2 -4 3 3 5 -2 18 -10 29 -15 19 -15 19 -8
-5 7 -24 7 -24 -9 -5 -11 14 -15 16 -16 6 0 -8 -3 -12 -6 -9 -3 4 1 17 8 30
13 21 12 25 -12 49 -23 24 -26 25 -26 8 0 -10 8 -21 18 -25 15 -5 15 -35 0
-32 -19 2 -21 -4 -7 -26 16 -24 15 -24 -6 -19 -17 5 -20 3 -14 -8 5 -8 4 -11
0 -6 -5 4 -15 -3 -22 -15 -9 -18 -12 -19 -13 -6 0 9 5 20 10 23 6 4 8 11 5 16
-10 16 -22 10 -29 -13 -6 -22 -8 -21 -24 11 -9 19 -24 37 -32 39 -12 4 -11 1
3 -15 9 -11 17 -26 17 -33 0 -10 -3 -10 -12 2 -7 9 -29 26 -48 37 -23 14 -29
21 -17 21 10 0 15 5 12 10 -4 7 -12 7 -25 0 -22 -12 -33 -13 -26 -2 6 10 -55
16 -189 16 -148 1 -216 -5 -208 -17 4 -6 -4 -7 -21 -3 -14 3 -26 3 -26 -2 0
-13 -57 -30 -71 -21 -18 11 8 59 33 59 19 0 20 1 22 42 1 15 12 38 25 52 14
15 21 31 17 41 -5 13 -1 15 16 9 21 -6 21 -6 5 10 -20 21 -22 27 -4 20 16 -6
19 25 4 44 -5 6 -6 12 -1 12 5 0 2 4 -6 10 -11 7 -9 11 13 19 36 14 57 14 57
0 0 -6 -9 -8 -22 -4 -21 6 -22 5 -4 -6 15 -9 24 -9 37 0 11 6 27 11 36 10 12
-1 10 -4 -7 -9 -23 -7 -23 -8 -3 -9 30 -1 54 -12 48 -21 -3 -5 5 -6 16 -3 15
4 27 0 35 -12 8 -11 14 -14 14 -8 0 6 12 14 28 18 l27 7 -27 23 c-24 20 -25
24 -10 28 14 4 14 5 -3 6 -11 1 -27 6 -35 11 -20 13 51 13 156 0z m-146 -20
c0 -5 -5 -10 -11 -10 -5 0 -7 5 -4 10 3 6 8 10 11 10 2 0 4 -4 4 -10z m-3 -36
c-3 -3 -12 -4 -19 -1 -8 3 -5 6 6 6 11 1 17 -2 13 -5z m-322 -34 c3 -5 1 -10
-4 -10 -6 0 -11 5 -11 10 0 6 2 10 4 10 3 0 8 -4 11 -10z m-130 -80 c-3 -5
-12 -10 -18 -10 -7 0 -6 4 3 10 19 12 23 12 15 0z m23 -65 c18 6 29 15 25 20
-5 6 1 3 12 -6 11 -9 26 -15 33 -13 7 1 9 0 4 -2 -10 -5 -3 -56 9 -64 11 -8
-1 -50 -14 -50 -6 0 -18 -7 -28 -16 -14 -12 -22 -13 -39 -4 -12 6 -27 9 -35 7
-16 -7 -32 26 -39 78 -4 25 -3 33 3 20 7 -18 8 -17 13 7 3 15 2 31 -1 35 -3 5
1 2 9 -7 12 -12 21 -13 48 -5z m-88 11 c0 -2 -7 -7 -16 -10 -8 -3 -12 -2 -9 4
6 10 25 14 25 6z m24 -132 c9 -24 7 -27 -9 -10 -17 17 -19 26 -6 26 5 0 12 -7
15 -16z m183 -36 c-3 -8 -6 -5 -6 6 -1 11 2 17 5 13 3 -3 4 -12 1 -19z"/>
<path d="M3545 7720 c3 -5 8 -10 11 -10 2 0 4 5 4 10 0 6 -5 10 -11 10 -5 0
-7 -4 -4 -10z"/>
<path d="M2734 7011 c-62 -38 -65 -113 -6 -173 62 -66 172 -10 172 86 0 80
-97 131 -166 87z"/>
<path d="M2168 6453 c6 -2 18 -2 25 0 6 3 1 5 -13 5 -14 0 -19 -2 -12 -5z"/>
<path d="M2258 6433 c7 -3 16 -2 19 1 4 3 -2 6 -13 5 -11 0 -14 -3 -6 -6z"/>
<path d="M2053 6357 c-1 -26 0 -28 7 -12 11 26 12 45 3 45 -5 0 -9 -15 -10
-33z"/>
<path d="M2022 6360 c-18 -29 -15 -38 4 -12 9 13 14 25 12 27 -2 2 -9 -5 -16
-15z"/>
<path d="M2170 6318 c0 -15 5 -30 11 -34 6 -3 8 -15 6 -26 -5 -18 -2 -19 31
-13 20 4 41 11 47 16 12 12 58 12 50 0 -3 -5 -1 -12 4 -16 18 -10 2 37 -16 50
-15 11 -73 27 -108 29 -5 1 -13 6 -17 11 -4 6 -8 -2 -8 -17z m110 -28 c13 -8
13 -10 -2 -10 -9 0 -20 5 -23 10 -8 13 5 13 25 0z"/>
<path d="M2439 6285 c-6 -20 7 -72 15 -64 2 2 1 22 -3 44 -5 30 -8 35 -12 20z"/>
<path d="M2462 6270 c0 -14 2 -19 5 -12 2 6 2 18 0 25 -3 6 -5 1 -5 -13z"/>
<path d="M2230 6225 c7 -8 10 -24 7 -36 -5 -20 -5 -20 14 -3 12 10 16 20 10
22 -6 2 -11 10 -11 18 0 8 -7 14 -16 14 -13 0 -14 -3 -4 -15z"/>
<path d="M2168 6223 c6 -2 18 -2 25 0 6 3 1 5 -13 5 -14 0 -19 -2 -12 -5z"/>
<path d="M2430 6199 c0 -11 4 -18 10 -14 5 3 7 12 3 20 -7 21 -13 19 -13 -6z"/>
<path d="M2148 6193 c12 -2 30 -2 40 0 9 3 -1 5 -23 4 -22 0 -30 -2 -17 -4z"/>
<path d="M2402 6180 c0 -14 2 -19 5 -12 2 6 2 18 0 25 -3 6 -5 1 -5 -13z"/>
<path d="M1780 6151 c-18 -5 -21 -9 -11 -15 8 -5 19 -2 29 8 9 9 14 16 12 15
-3 -1 -16 -4 -30 -8z"/>
<path d="M1679 6138 c-25 -25 -27 -38 -7 -38 5 0 6 5 3 10 -3 6 0 10 8 10 19
0 43 29 31 38 -5 5 -21 -4 -35 -20z"/>
<path d="M8037 8880 c-10 -16 -24 -30 -30 -30 -16 0 -39 -38 -31 -51 3 -6 -3
-13 -15 -16 -26 -7 -40 -51 -20 -64 36 -22 102 12 83 43 -5 7 -3 8 6 3 8 -5
11 -3 8 6 -3 8 0 21 7 29 14 17 28 110 17 110 -4 0 -16 -13 -25 -30z"/>
<path d="M8745 8609 c-30 -63 -16 -139 26 -139 29 0 69 48 69 82 0 50 -34 98
-68 98 -4 0 -16 -19 -27 -41z"/>
<path d="M9100 8295 c0 -33 -22 -41 -102 -39 -35 1 -91 3 -124 3 -59 1 -62 2
-69 29 l-7 27 -10 -25 c-5 -13 -14 -28 -21 -32 -7 -4 -62 -8 -122 -8 -110 0
-111 0 -145 32 -34 30 -35 31 -38 10 -3 -17 -10 -22 -31 -22 -35 0 -117 -28
-130 -44 -9 -10 4 -18 56 -36 38 -12 77 -31 89 -41 20 -19 21 -18 59 21 l39
40 108 0 c106 0 108 0 114 -25 6 -24 24 -36 24 -16 0 5 7 17 16 25 12 13 40
16 135 16 l120 0 31 -35 c29 -34 32 -35 53 -21 13 9 53 23 89 32 51 13 66 20
66 35 0 24 -24 36 -86 44 -38 5 -52 12 -60 29 -5 11 -19 22 -31 24 -19 3 -23
-1 -23 -23z"/>
<path d="M3760 8016 c0 -2 8 -10 18 -17 15 -13 16 -12 3 4 -13 16 -21 21 -21
13z"/>
<path d="M8760 7956 c-11 -29 -49 -43 -142 -51 -97 -8 -123 -14 -112 -25 5 -5
59 -11 119 -12 l110 -3 10 -50 c17 -76 57 -69 80 14 l11 36 118 3 c87 2 116 6
113 15 -4 12 -52 21 -172 31 -57 4 -73 9 -87 28 -10 13 -18 26 -18 31 0 17
-21 5 -30 -17z"/>
<path d="M4270 7632 c0 -15 27 -45 36 -41 5 2 -1 14 -13 26 -13 12 -23 19 -23
15z"/>
<path d="M4513 7605 c0 -8 4 -15 9 -15 4 0 8 4 8 9 0 6 -4 12 -8 15 -5 3 -9
-1 -9 -9z"/>
<path d="M4445 7581 c-17 -7 -16 -9 9 -15 16 -4 31 -5 34 -1 3 3 -3 5 -14 6
-18 0 -18 1 1 9 25 11 -2 12 -30 1z"/>
<path d="M4410 7560 c8 -5 22 -9 30 -9 10 0 8 3 -5 9 -27 12 -43 12 -25 0z"/>
<path d="M2155 7450 c3 -5 25 -10 48 -10 31 0 38 3 27 10 -20 13 -83 13 -75 0z"/>
<path d="M5005 7440 c-8 -13 5 -13 25 0 13 8 13 10 -2 10 -9 0 -20 -4 -23 -10z"/>
<path d="M781 7394 c0 -11 3 -14 6 -6 3 7 2 16 -1 19 -3 4 -6 -2 -5 -13z"/>
<path d="M5510 7380 c-18 -12 -2 -12 25 0 13 6 15 9 5 9 -8 0 -22 -4 -30 -9z"/>
<path d="M4460 7370 c0 -5 5 -10 10 -10 6 0 10 5 10 10 0 6 -4 10 -10 10 -5 0
-10 -4 -10 -10z"/>
<path d="M4960 7361 c0 -6 4 -13 10 -16 6 -3 7 1 4 9 -7 18 -14 21 -14 7z"/>
<path d="M5458 7363 c6 -2 18 -2 25 0 6 3 1 5 -13 5 -14 0 -19 -2 -12 -5z"/>
<path d="M2261 7304 c0 -11 3 -14 6 -6 3 7 2 16 -1 19 -3 4 -6 -2 -5 -13z"/>
<path d="M5792 7301 c-7 -4 0 -11 18 -18 33 -13 40 -4 12 14 -11 6 -24 8 -30
4z"/>
<path d="M2241 7284 c0 -11 3 -14 6 -6 3 7 2 16 -1 19 -3 4 -6 -2 -5 -13z"/>
<path d="M2160 7240 c0 -33 3 -40 20 -40 17 0 20 7 20 40 0 33 -3 40 -20 40
-17 0 -20 -7 -20 -40z"/>
<path d="M4448 7273 c7 -3 16 -2 19 1 4 3 -2 6 -13 5 -11 0 -14 -3 -6 -6z"/>
<path d="M8799 7263 c-13 -16 -12 -17 4 -4 16 13 21 21 13 21 -2 0 -10 -8 -17
-17z"/>
<path d="M9210 7270 c13 -9 13 -11 0 -20 -9 -6 -11 -10 -3 -10 7 0 17 8 22 18
8 14 5 18 -12 19 -17 2 -19 0 -7 -7z"/>
<path d="M811 7249 c-1 -8 6 -24 15 -35 15 -19 15 -19 6 1 -5 11 -12 27 -15
35 -5 13 -6 13 -6 -1z"/>
<path d="M5896 7251 c-7 -11 22 -23 36 -15 6 4 5 10 -3 15 -18 11 -26 11 -33
0z"/>
<path d="M8936 7242 c-3 -5 1 -9 9 -9 8 0 12 4 9 9 -3 4 -7 8 -9 8 -2 0 -6 -4
-9 -8z"/>
<path d="M8745 7230 c3 -5 8 -10 11 -10 2 0 4 5 4 10 0 6 -5 10 -11 10 -5 0
-7 -4 -4 -10z"/>
<path d="M9100 7230 c-9 -6 -10 -10 -3 -10 6 0 15 5 18 10 8 12 4 12 -15 0z"/>
<path d="M9248 7233 c6 -2 18 -2 25 0 6 3 1 5 -13 5 -14 0 -19 -2 -12 -5z"/>
<path d="M9180 7206 c14 -18 13 -19 -5 -12 -16 6 -18 5 -7 -5 8 -9 15 -10 22
-3 8 8 5 15 -7 25 -17 13 -17 13 -3 -5z"/>
<path d="M8825 7200 c-3 -6 1 -7 9 -4 18 7 21 14 7 14 -6 0 -13 -4 -16 -10z"/>
<path d="M8920 7189 c-12 -9 -12 -10 4 -5 10 4 26 1 35 -6 14 -12 14 -11 2 5
-16 20 -21 21 -41 6z"/>
<path d="M9243 7176 c0 -12 -3 -30 -8 -41 -4 -11 -5 -18 -2 -14 4 3 13 21 21
40 12 29 12 36 2 36 -8 0 -13 -10 -13 -21z"/>
<path d="M9283 7181 c-10 -16 -9 -20 3 -25 29 -11 38 -6 18 9 -12 10 -14 14
-4 12 8 -2 12 -2 7 0 -4 3 -5 9 -1 14 3 5 1 9 -3 9 -5 0 -14 -9 -20 -19z"/>
<path d="M8788 7183 c7 -3 16 -2 19 1 4 3 -2 6 -13 5 -11 0 -14 -3 -6 -6z"/>
<path d="M9110 7180 c-8 -5 -12 -12 -9 -15 4 -3 12 1 19 10 14 17 11 19 -10 5z"/>
<path d="M6108 7168 c8 -10 23 -20 34 -24 17 -5 18 -8 7 -16 -11 -7 -11 -9 -1
-6 22 6 16 20 -20 42 -25 16 -30 16 -20 4z"/>
<path d="M8665 7170 c-3 -5 -1 -10 4 -10 6 0 11 5 11 10 0 6 -2 10 -4 10 -3 0
-8 -4 -11 -10z"/>
<path d="M8700 7175 c0 -5 5 -17 10 -25 5 -8 10 -10 10 -5 0 6 -5 17 -10 25
-5 8 -10 11 -10 5z"/>
<path d="M8755 7170 c-3 -5 -1 -10 4 -10 6 0 11 5 11 10 0 6 -2 10 -4 10 -3 0
-8 -4 -11 -10z"/>
<path d="M9000 7170 c0 -6 4 -9 9 -6 5 4 12 1 14 -4 3 -6 4 -5 3 2 -3 15 -26
23 -26 8z"/>
<path d="M9070 7169 c0 -5 5 -7 10 -4 6 3 10 8 10 11 0 2 -4 4 -10 4 -5 0 -10
-5 -10 -11z"/>
<path d="M9131 7167 c-9 -12 -8 -16 3 -20 10 -4 13 -1 9 9 -6 16 13 20 20 4 3
-6 4 -5 3 2 -3 18 -22 20 -35 5z"/>
<path d="M3975 7160 c-3 -5 -1 -10 5 -10 6 0 8 -4 5 -10 -3 -5 -2 -10 4 -10 5
0 13 5 16 10 3 6 1 10 -5 10 -6 0 -8 5 -5 10 3 6 2 10 -4 10 -5 0 -13 -4 -16
-10z"/>
<path d="M8897 7155 c3 -8 9 -12 14 -9 12 7 11 11 -5 17 -10 4 -13 1 -9 -8z"/>
<path d="M8930 7159 c0 -5 5 -7 10 -4 6 3 10 8 10 11 0 2 -4 4 -10 4 -5 0 -10
-5 -10 -11z"/>
<path d="M6000 7150 c0 -5 5 -10 10 -10 6 0 10 5 10 10 0 6 -4 10 -10 10 -5 0
-10 -4 -10 -10z"/>
<path d="M9181 7146 c-9 -11 -9 -15 1 -19 11 -3 11 -8 0 -26 -10 -17 -10 -21
2 -21 8 0 17 -4 20 -9 4 -5 -4 -7 -16 -3 -13 3 -27 11 -31 19 -7 11 -14 9 -38
-8 -24 -17 -33 -18 -44 -9 -8 7 -22 9 -31 6 -13 -5 -15 -2 -11 16 5 21 5 21
-7 6 -7 -10 -16 -18 -20 -18 -12 0 -6 23 11 35 13 9 13 14 3 20 -8 5 -11 4 -7
-2 4 -6 0 -14 -9 -17 -8 -3 -14 -14 -13 -23 3 -34 -2 -38 -17 -13 -10 17 -13
18 -9 5 19 -55 19 -55 -13 -49 -17 4 -48 3 -69 -2 l-38 -8 50 -6 c48 -7 47 -7
-22 -8 -43 -1 -73 2 -73 8 0 6 -12 10 -27 9 l-28 -1 25 -9 c17 -6 5 -7 -40 -4
-43 3 -58 1 -45 -5 33 -14 611 -12 622 3 12 15 13 47 1 47 -4 0 -8 8 -8 18 0
10 -9 25 -20 35 -25 21 -31 22 -23 0 4 -11 3 -14 -5 -9 -7 4 -12 3 -12 -3 0
-15 18 -23 22 -9 2 6 10 8 16 4 16 -10 15 -29 0 -20 -7 4 -3 -3 10 -16 13 -12
21 -24 18 -27 -3 -3 -12 2 -21 11 -9 9 -23 16 -31 16 -8 0 -14 4 -14 9 0 5 -9
13 -21 16 -12 4 -18 12 -15 21 3 7 1 16 -4 19 -6 4 -10 11 -10 16 0 6 5 7 12
3 7 -4 8 -3 4 4 -9 15 -11 15 -25 -2z m-150 -88 c0 -10 2 -10 6 0 5 14 23 16
23 3 0 -16 -28 -20 -40 -5 -9 10 -9 14 -1 14 6 0 11 -6 12 -12z m125 -3 c13
-13 13 -15 1 -15 -8 0 -17 7 -21 15 -3 8 -3 15 0 15 3 0 12 -7 20 -15z m-76
-15 c0 -5 -5 -10 -11 -10 -5 0 -7 5 -4 10 3 6 8 10 11 10 2 0 4 -4 4 -10z"/>
<path d="M8680 7140 c0 -5 5 -10 10 -10 6 0 10 5 10 10 0 6 -4 10 -10 10 -5 0
-10 -4 -10 -10z"/>
<path d="M8723 7136 c-6 -8 -9 -17 -6 -20 12 -11 19 -6 20 14 2 23 2 23 -14 6z"/>
<path d="M8776 7135 c-3 -8 -1 -15 4 -15 6 0 10 7 10 15 0 8 -2 15 -4 15 -2 0
-6 -7 -10 -15z"/>
<path d="M9076 7134 c-4 -9 -4 -19 -1 -22 3 -3 5 0 5 6 0 6 8 9 18 6 10 -4 13
-2 7 3 -5 4 -13 12 -16 16 -4 4 -9 0 -13 -9z"/>
<path d="M6090 7130 c-8 -5 -11 -12 -8 -15 4 -4 17 0 30 9 24 17 5 23 -22 6z"/>
<path d="M8807 7126 c-4 -10 -1 -13 9 -9 7 3 14 9 14 14 0 14 -17 10 -23 -5z"/>
<path d="M8920 7130 c-9 -6 -10 -10 -3 -10 6 0 15 5 18 10 8 12 4 12 -15 0z"/>
<path d="M9286 7131 c-3 -5 1 -11 9 -14 9 -4 12 -1 8 9 -6 16 -10 17 -17 5z"/>
<path d="M4018 7123 c7 -3 16 -2 19 1 4 3 -2 6 -13 5 -11 0 -14 -3 -6 -6z"/>
<path d="M7055 7109 c-4 -6 -4 -13 -1 -16 3 -4 6 -1 6 5 0 7 5 12 11 12 6 0 8
-7 4 -17 -5 -14 -3 -15 6 -6 12 12 5 33 -11 33 -5 0 -12 -5 -15 -11z"/>
<path d="M8740 7090 c0 -5 5 -10 11 -10 5 0 7 5 4 10 -3 6 -8 10 -11 10 -2 0
-4 -4 -4 -10z"/>
<path d="M8825 7090 c-3 -5 -2 -10 4 -10 5 0 13 5 16 10 3 6 2 10 -4 10 -5 0
-13 -4 -16 -10z"/>
<path d="M9085 7090 c-8 -13 5 -13 25 0 13 8 13 10 -2 10 -9 0 -20 -4 -23 -10z"/>
<path d="M6247 7082 c-7 -10 4 -62 12 -62 4 0 7 9 8 20 1 11 -3 20 -9 20 -5 0
-8 7 -4 15 6 16 1 21 -7 7z"/>
<path d="M8888 7083 c7 -3 16 -2 19 1 4 3 -2 6 -13 5 -11 0 -14 -3 -6 -6z"/>
<path d="M6973 7055 c-10 -11 -9 -13 6 -12 11 1 17 7 14 14 -6 16 -5 16 -20
-2z"/>
<path d="M7023 7063 c-7 -2 -13 -9 -13 -14 0 -5 6 -8 13 -6 6 1 11 -4 9 -11
-1 -8 2 -11 8 -7 8 5 8 11 1 19 -6 7 -8 16 -4 19 7 8 4 8 -14 0z"/>
<path d="M6287 7046 c-4 -10 0 -14 13 -13 14 1 16 4 8 14 -13 16 -15 16 -21
-1z"/>
<path d="M8910 7056 c0 -2 13 -6 29 -8 17 -2 28 -1 25 4 -5 8 -54 12 -54 4z"/>
<path d="M6305 7020 c-30 -6 -30 -6 -5 -13 13 -3 29 -2 34 3 14 14 5 17 -29
10z"/>
<path d="M8548 7013 c7 -3 16 -2 19 1 4 3 -2 6 -13 5 -11 0 -14 -3 -6 -6z"/>
<path d="M8578 6851 c-19 -16 -21 -22 -11 -44 l12 -26 172 0 c176 0 209 6 209
38 0 38 -24 43 -195 47 -147 3 -166 1 -187 -15z"/>
<path d="M9150 6862 c-53 -16 -68 -80 -25 -108 41 -27 115 4 115 47 0 34 -56
72 -90 61z"/>
<path d="M3786 6818 c5 -8 2 -9 -10 -5 -9 4 -15 3 -11 -2 3 -6 14 -9 25 -8 14
1 16 4 8 14 -13 16 -22 17 -12 1z"/>
<path d="M5013 6649 c-40 -25 -67 -80 -58 -119 21 -95 123 -127 195 -60 37 34
46 71 30 121 -24 71 -103 99 -167 58z"/>
<path d="M4375 6470 c-39 -57 -36 -89 17 -150 24 -28 53 -53 66 -57 14 -3 21
-11 18 -19 -10 -25 22 -15 53 17 26 25 31 38 31 77 0 88 -63 172 -131 172 -19
0 -34 -11 -54 -40z"/>
<path d="M5665 6502 c-57 -11 -105 -95 -102 -175 2 -51 4 -57 32 -70 27 -13
34 -13 60 0 75 38 140 126 130 173 -10 45 -71 82 -120 72z"/>
<path d="M5930 6290 c0 -5 -4 -10 -10 -10 -5 0 -30 -12 -55 -27 -33 -20 -45
-33 -41 -45 2 -10 0 -21 -5 -24 -5 -3 -7 -10 -4 -15 6 -9 -14 -14 -49 -10 -18
1 -18 -1 4 -24 16 -17 30 -23 44 -19 17 4 18 3 6 -5 -14 -10 -7 -15 13 -12 5
1 6 -3 3 -8 -4 -5 -2 -12 4 -16 5 -3 10 1 10 9 0 17 23 20 55 6 18 -7 19 -8 3
-15 -10 -4 -15 -12 -12 -17 4 -6 9 -6 14 2 5 9 19 2 46 -24 21 -20 42 -36 46
-36 9 0 69 38 101 63 9 8 17 23 17 34 0 21 -42 63 -63 63 -22 0 -57 45 -57 73
0 15 -9 36 -20 47 -21 21 -50 27 -50 10z"/>
<path d="M4062 6266 c7 -8 15 -12 17 -11 5 6 -10 25 -20 25 -5 0 -4 -6 3 -14z"/>
<path d="M4905 6241 c-94 -16 -268 -72 -333 -108 -122 -69 -284 -215 -362
-328 -45 -66 -95 -177 -126 -280 -22 -75 -27 -117 -31 -247 -7 -191 6 -286 56
-427 64 -180 117 -264 251 -404 l88 -92 36 35 36 34 -33 36 c-51 53 -140 169
-171 222 -54 93 -130 298 -105 282 5 -3 9 7 9 21 0 41 23 25 39 -26 29 -95 72
-191 117 -261 66 -102 134 -182 146 -170 6 6 6 17 -1 30 -17 32 -13 37 9 12
26 -31 26 -10 -1 24 -11 14 -16 26 -11 26 6 0 12 -3 14 -7 4 -11 58 -58 58
-51 0 3 -12 18 -26 34 -60 68 -144 205 -170 279 -27 78 -28 79 -16 189 14 133
17 152 31 191 9 26 10 22 5 -25 -21 -206 -5 -300 73 -427 46 -75 77 -110 48
-53 -30 57 -45 123 -51 220 -12 189 28 342 126 484 28 40 50 77 50 82 0 23 87
95 153 127 130 63 302 75 452 32 116 -34 226 -91 208 -109 -3 -3 1 -14 9 -23
34 -40 24 -39 -44 6 -112 74 -225 104 -380 102 -96 -1 -154 -15 -241 -58 -83
-41 -145 -96 -179 -160 -33 -60 -81 -186 -68 -178 6 3 10 1 10 -6 0 -9 3 -9
14 0 16 13 29 54 15 45 -5 -3 -9 -12 -9 -20 0 -8 -5 -14 -10 -14 -6 0 -4 13 5
30 9 17 21 30 28 30 7 0 21 10 31 23 10 12 35 39 54 60 34 35 41 54 8 21 -9
-8 -16 -11 -16 -5 0 5 7 16 15 24 8 8 11 18 7 22 -4 4 3 2 16 -4 19 -10 27 -9
50 7 15 11 47 29 70 41 24 12 41 25 38 28 -3 3 -17 -2 -30 -11 -14 -9 -37 -17
-50 -18 -14 -1 -22 -6 -20 -10 5 -7 -10 -12 -28 -9 -4 0 -5 -6 -2 -14 8 -19
-3 -19 -22 0 -11 11 -12 15 -3 15 7 0 26 12 41 27 17 17 28 22 28 13 0 -9 7
-6 20 8 12 12 25 22 31 22 5 0 28 9 50 20 32 15 57 18 117 16 207 -10 286 -28
360 -84 21 -15 39 -30 40 -35 2 -4 8 -5 13 -1 5 3 9 1 9 -4 0 -6 8 -8 19 -5
23 6 71 -51 136 -164 43 -74 48 -90 58 -181 15 -134 0 -268 -38 -343 -33 -64
-72 -126 -99 -156 -11 -13 -16 -26 -13 -30 15 -15 119 135 166 240 30 68 61
186 61 236 0 33 14 41 24 15 11 -30 6 -170 -9 -226 -14 -54 -80 -178 -132
-246 -13 -18 -28 -46 -33 -62 -7 -25 -5 -30 12 -36 57 -18 212 221 269 418 16
54 28 78 41 81 15 4 18 -1 18 -37 0 -89 -65 -263 -139 -370 -16 -22 -52 -64
-80 -93 l-51 -52 38 -30 c20 -17 40 -31 43 -31 12 0 119 122 159 180 80 118
143 282 176 455 22 119 15 263 -20 415 -30 126 -56 191 -117 287 -22 35 -37
69 -33 75 4 6 3 8 -3 5 -6 -4 -19 6 -29 21 -31 48 -147 163 -209 207 -82 58
-181 106 -300 145 -93 31 -111 33 -255 36 -85 1 -177 -1 -205 -5z m600 -309
c-3 -3 -11 0 -18 7 -9 10 -8 11 6 5 10 -3 15 -9 12 -12z m-262 -86 c26 -4 45
-11 42 -17 -4 -5 0 -9 7 -9 7 0 26 -7 42 -15 16 -9 35 -14 42 -11 8 3 11 -1 7
-10 -5 -13 9 -18 46 -16 32 1 145 -83 134 -101 -3 -6 -1 -7 5 -3 14 8 23 -6
14 -21 -5 -8 -22 0 -52 24 -64 51 -213 119 -303 137 -144 30 -301 16 -417 -36
-35 -16 -70 -26 -78 -23 -7 2 -10 0 -7 -5 10 -16 -21 -11 -35 5 -11 13 -10 14
4 9 11 -4 16 -2 14 6 -5 21 148 72 215 72 46 0 55 2 42 12 -12 8 13 11 107 10
68 -1 145 -4 171 -8z m-552 -123 c13 -17 13 -17 -6 -3 -11 8 -22 16 -24 17 -2
2 0 3 6 3 6 0 17 -8 24 -17z m-20 -326 l-24 -22 19 27 c10 14 21 24 23 22 3
-3 -6 -15 -18 -27z m1246 -99 c-3 -7 -5 -2 -5 12 0 14 2 19 5 13 2 -7 2 -19 0
-25z m-171 -89 c16 -63 17 -79 5 -79 -5 0 -12 21 -16 48 -3 26 -9 58 -12 72
-11 47 8 12 23 -41z"/>
<path d="M1063 6140 c-51 -31 -56 -88 -12 -143 30 -39 90 -38 130 2 41 41 39
83 -5 127 -39 39 -67 43 -113 14z"/>
<path d="M4300 6120 c0 -5 4 -10 9 -10 6 0 13 5 16 10 3 6 -1 10 -9 10 -9 0
-16 -4 -16 -10z"/>
<path d="M4416 6075 c-11 -8 -15 -15 -9 -15 6 0 16 7 23 15 16 19 11 19 -14 0z"/>
<path d="M5880 6041 c0 -10 19 -25 25 -20 1 2 -3 10 -11 17 -8 7 -14 8 -14 3z"/>
<path d="M9065 5729 c-29 -31 -45 -56 -41 -65 3 -9 6 -20 6 -24 0 -5 14 -25
31 -45 52 -58 101 -42 155 52 l18 33 -49 50 c-27 27 -54 50 -61 50 -6 0 -33
-23 -59 -51z"/>
<path d="M5465 5460 c3 -5 8 -10 11 -10 2 0 4 5 4 10 0 6 -5 10 -11 10 -5 0
-7 -4 -4 -10z"/>
<path d="M8835 5460 c3 -5 8 -10 11 -10 2 0 4 5 4 10 0 6 -5 10 -11 10 -5 0
-7 -4 -4 -10z"/>
<path d="M5523 5403 c5 -6 6 -17 2 -23 -4 -6 0 -19 9 -29 10 -11 14 -26 10
-37 -4 -14 -3 -15 4 -5 7 9 12 10 16 2 4 -6 5 -14 3 -18 -3 -5 4 -17 15 -28
17 -17 17 -13 -5 37 -14 31 -24 58 -22 60 2 2 -6 15 -18 29 -12 14 -18 19 -14
12z"/>
<path d="M5568 5240 c5 -14 15 -61 23 -105 13 -77 14 -78 21 -40 10 58 -1 113
-29 143 l-24 26 9 -24z"/>
<path d="M4566 5235 c-3 -9 -6 -24 -5 -33 0 -9 5 -4 10 12 9 32 6 48 -5 21z"/>
<path d="M4551 5164 c0 -11 3 -14 6 -6 3 7 2 16 -1 19 -3 4 -6 -2 -5 -13z"/>
<path d="M5600 5005 c0 -19 2 -35 4 -35 2 0 6 16 8 35 2 19 0 35 -4 35 -4 0
-8 -16 -8 -35z"/>
<path d="M908 4923 c7 -3 16 -2 19 1 4 3 -2 6 -13 5 -11 0 -14 -3 -6 -6z"/>
<path d="M1169 4893 c-13 -16 -12 -17 4 -4 9 7 17 15 17 17 0 8 -8 3 -21 -13z"/>
<path d="M1101 4891 c-8 -5 -9 -11 -3 -15 5 -3 12 1 16 9 6 17 6 18 -13 6z"/>
<path d="M1309 4883 c-13 -16 -12 -17 4 -4 16 13 21 21 13 21 -2 0 -10 -8 -17
-17z"/>
<path d="M1046 4871 c4 -15 2 -21 -5 -17 -10 7 -51 -13 -51 -25 0 -12 29 -5
34 8 3 8 10 12 15 8 6 -3 15 4 21 16 7 12 8 19 2 15 -6 -3 -13 0 -16 6 -3 7
-3 2 0 -11z"/>
<path d="M798 4848 c-22 -22 -22 -28 -2 -28 8 0 13 4 10 9 -4 5 -1 11 5 13 7
2 10 8 8 14 -2 5 -12 2 -21 -8z"/>
<path d="M1072 4849 c-9 -13 -9 -19 -1 -19 6 0 9 -6 6 -14 -4 -10 5 -13 40
-10 25 1 56 -1 69 -6 15 -6 24 -6 24 0 0 6 -4 10 -10 10 -5 0 -10 5 -10 11 0
5 6 7 13 4 6 -4 3 1 -7 9 -11 9 -25 16 -30 15 -6 0 -5 -3 2 -6 20 -8 14 -23
-9 -23 -15 0 -19 5 -15 16 3 8 2 12 -4 9 -6 -3 -10 -13 -10 -21 0 -8 -8 -14
-17 -14 -13 0 -14 3 -5 12 7 7 12 19 12 28 -1 10 -5 7 -13 -8 -7 -12 -16 -19
-20 -16 -11 11 -8 26 3 19 6 -3 10 -2 10 4 0 19 -16 19 -28 0z"/>
<path d="M1220 4781 c0 -6 5 -13 10 -16 6 -3 10 1 10 9 0 9 -4 16 -10 16 -5 0
-10 -4 -10 -9z"/>
<path d="M6465 4740 c3 -5 8 -10 11 -10 2 0 4 5 4 10 0 6 -5 10 -11 10 -5 0
-7 -4 -4 -10z"/>
<path d="M3660 4725 c0 -9 6 -12 15 -9 8 4 12 10 9 15 -8 14 -24 10 -24 -6z"/>
<path d="M6430 4715 c0 -9 -4 -13 -10 -10 -5 3 -10 -3 -10 -14 0 -11 -4 -23
-10 -26 -16 -10 -11 -21 10 -21 13 0 20 7 20 19 0 10 5 27 10 37 7 13 7 21 0
25 -5 3 -10 -1 -10 -10z"/>
<path d="M4550 4701 c0 -5 5 -13 10 -16 6 -3 10 -2 10 4 0 5 -4 13 -10 16 -5
3 -10 2 -10 -4z"/>
<path d="M4580 4672 c0 -11 27 -42 37 -42 3 0 -2 10 -13 23 -10 12 -20 24 -21
26 -2 2 -3 -1 -3 -7z"/>
<path d="M5433 4572 c1 -17 5 -28 8 -26 9 5 30 -21 23 -29 -3 -3 110 -122 251
-264 142 -142 340 -343 440 -448 100 -104 217 -226 260 -270 42 -44 104 -111
138 -150 33 -38 141 -153 240 -255 238 -244 378 -400 370 -413 -4 -6 -1 -7 6
-3 8 5 26 -8 49 -35 20 -24 64 -72 97 -107 70 -74 79 -88 65 -97 -6 -4 -10 -3
-9 2 3 20 -2 34 -11 28 -6 -4 -8 -10 -5 -15 3 -4 -6 -7 -19 -6 -13 0 -22 6
-19 12 7 18 -18 28 -29 13 -8 -11 -9 -10 -4 4 3 9 1 17 -5 17 -6 0 -8 8 -4 18
5 14 4 15 -6 5 -14 -14 -33 -18 -25 -5 3 5 -1 9 -9 9 -14 0 -12 -9 8 -35 8
-11 12 -11 20 0 6 9 7 8 3 -5 -4 -13 8 -34 43 -70 27 -29 62 -68 77 -87 16
-19 63 -71 105 -115 164 -172 280 -305 275 -314 -4 -5 -1 -13 5 -17 8 -4 9 -3
5 4 -18 29 12 7 39 -28 25 -33 30 -47 27 -85 -3 -35 -8 -45 -22 -45 -10 0 -23
-7 -30 -15 -24 -29 -41 -18 -35 23 6 33 5 35 -8 19 -8 -10 -13 -28 -10 -40 4
-22 4 -22 -12 -2 -17 20 -17 19 -11 -8 5 -19 3 -26 -4 -22 -5 3 -10 13 -10 21
0 8 -4 14 -9 14 -4 0 -3 -15 3 -34 6 -19 14 -32 18 -30 4 3 5 -3 1 -12 -4 -12
-2 -15 8 -12 8 3 13 12 11 22 -2 9 2 16 8 16 5 0 10 -4 10 -10 0 -5 10 -11 23
-11 17 -1 16 -3 -7 -8 -16 -3 -31 -11 -33 -17 -6 -17 55 -49 118 -64 91 -21
109 -40 72 -72 -21 -17 -101 -43 -124 -39 -28 3 -103 -62 -109 -94 -3 -16 -9
-27 -13 -24 -4 2 -20 -18 -35 -46 -15 -27 -33 -50 -40 -50 -8 0 -32 38 -55 85
-53 108 -99 142 -212 161 -47 7 -80 18 -91 30 -20 22 -11 39 19 34 37 -7 172
29 171 45 -2 24 -9 45 -15 50 -17 13 -137 184 -251 357 -70 106 -160 235 -200
287 -116 151 -246 330 -310 424 -128 191 -305 437 -381 532 -35 45 -79 106
-146 205 -40 61 -77 109 -82 108 -4 -2 -6 3 -3 10 2 7 -13 32 -34 55 -21 23
-37 42 -34 42 2 0 -1 7 -8 15 -7 8 -16 12 -21 9 -5 -3 -7 1 -4 8 3 7 -10 29
-28 48 -34 36 -155 213 -255 373 -57 93 -168 221 -183 211 -5 -3 -9 0 -9 7 0
7 -2 10 -5 7 -13 -12 32 -101 130 -258 58 -94 105 -172 105 -175 0 -5 60 -107
205 -350 43 -71 110 -189 150 -261 40 -72 85 -150 99 -172 14 -23 26 -44 26
-47 0 -3 31 -56 68 -117 38 -62 103 -174 146 -248 43 -74 114 -196 158 -270
44 -74 104 -175 133 -225 28 -49 73 -126 100 -170 27 -44 75 -123 106 -175 92
-151 264 -411 266 -403 2 5 30 7 63 7 49 -1 66 -6 96 -29 32 -25 157 -171 316
-370 35 -44 86 -94 114 -112 27 -18 71 -49 98 -69 51 -39 147 -83 181 -84 11
0 31 7 44 16 20 15 23 22 17 61 -4 34 -2 45 10 50 19 7 98 -23 132 -52 63 -52
142 -73 142 -38 0 18 -112 130 -142 141 -32 13 -184 160 -201 193 -21 45 -8
59 57 59 48 0 55 -3 91 -41 96 -99 330 -275 439 -331 22 -11 68 -23 102 -26
57 -4 64 -2 88 21 34 34 28 44 -79 125 -77 58 -335 318 -344 345 -2 7 -10 18
-19 24 -24 19 -7 27 19 9 16 -11 27 -12 40 -5 15 8 17 6 12 -8 -5 -12 -2 -15
8 -11 10 4 56 -33 133 -108 160 -155 233 -217 286 -245 43 -22 55 -23 275 -23
269 -1 272 1 154 79 -89 58 -133 94 -289 230 -63 55 -131 113 -150 129 -19 15
-98 87 -175 160 -77 73 -165 154 -195 182 -30 27 -118 107 -195 179 -77 72
-194 180 -259 240 -66 61 -205 190 -308 288 -104 98 -193 175 -198 172 -6 -3
-7 0 -4 8 5 13 -148 162 -166 162 -5 0 -12 4 -17 9 -5 6 -2 6 7 1 13 -8 13 -6
1 8 -7 9 -17 14 -22 11 -5 -3 -8 -2 -7 3 2 9 -110 118 -282 273 -63 57 -227
212 -364 344 -353 342 -477 456 -487 450 -5 -3 -9 1 -9 8 0 20 -165 168 -188
168 -10 0 -27 9 -37 20 -10 11 -13 20 -7 20 6 0 16 -8 21 -17 6 -10 11 -13 11
-6 0 16 -78 76 -90 68 -6 -3 -17 1 -26 9 -8 9 -12 16 -7 16 5 0 14 -5 21 -12
8 -8 12 -8 12 -1 0 11 -29 28 -43 24 -5 -1 -6 3 -3 8 3 5 -1 14 -9 21 -8 7
-15 9 -15 6 0 -4 -24 17 -53 46 -45 44 -183 172 -298 276 l-27 24 1 -30z m661
-584 c-5 -8 -69 54 -66 65 1 4 -2 7 -8 7 -5 0 -10 6 -10 12 0 7 20 -8 44 -32
24 -25 42 -48 40 -52z m40 -27 c12 -14 14 -19 4 -17 -19 2 -38 16 -38 27 0 15
16 10 34 -10z m155 -161 c13 -24 12 -23 -18 4 -17 17 -31 35 -31 40 0 6 -11
20 -25 30 -14 10 -25 23 -25 29 0 13 82 -72 99 -103z m143 -126 c7 -6 20 -20
29 -30 9 -11 27 -28 40 -40 40 -35 89 -93 89 -106 0 -9 3 -9 11 2 9 13 9 13 7
-1 -3 -14 82 -101 275 -281 43 -40 114 -109 158 -153 44 -44 84 -80 89 -80 6
0 9 -3 8 -6 -2 -4 6 -16 16 -28 11 -12 16 -21 11 -21 -4 0 -2 -7 5 -15 7 -8
17 -12 23 -8 6 4 7 1 2 -6 -5 -9 -15 -5 -36 15 -15 15 -26 31 -23 36 3 4 -1 8
-8 8 -22 0 -111 96 -103 111 6 8 4 10 -4 4 -15 -8 -711 682 -711 705 0 8 24
-10 54 -40 30 -30 60 -60 68 -66z m841 -847 c6 4 7 1 2 -6 -5 -9 -17 -4 -41
20 -19 18 -34 37 -34 41 0 5 14 -7 31 -27 17 -19 36 -32 42 -28z m112 -47 c-3
-5 0 -10 7 -11 10 0 11 -2 0 -6 -10 -4 -10 -8 0 -21 11 -15 11 -15 -4 -4 -9 7
-15 21 -13 30 5 23 4 22 11 22 3 0 2 -4 -1 -10z m6 -87 c13 -16 12 -17 -3 -4
-10 7 -18 15 -18 17 0 8 8 3 21 -13z m234 -233 l20 -25 -22 19 c-13 11 -23 24
-23 29 0 6 1 8 3 6 1 -2 11 -15 22 -29z m-165 -48 c0 -3 -13 7 -29 22 -20 20
-30 24 -34 14 -2 -7 -8 -10 -12 -6 -4 4 -1 13 6 22 12 13 17 11 42 -16 15 -17
27 -33 27 -36z m251 -39 c13 -16 12 -17 -3 -4 -10 7 -18 15 -18 17 0 8 8 3 21
-13z m116 -719 c-3 -3 -12 -4 -19 -1 -8 3 -5 6 6 6 11 1 17 -2 13 -5z m586
-249 c-3 -9 -8 -14 -10 -11 -3 3 -2 9 2 15 9 16 15 13 8 -4z"/>
<path d="M4781 4564 c-17 -14 -29 -30 -26 -35 4 -5 0 -6 -7 -4 -14 5 -204
-180 -226 -220 -6 -11 -12 -14 -12 -7 0 10 -3 10 -15 -2 -8 -8 -15 -18 -15
-23 0 -4 -14 -17 -30 -28 -16 -11 -30 -27 -30 -36 0 -19 -27 -44 -56 -53 -11
-3 -32 -18 -45 -33 -26 -29 -9 -23 31 11 49 41 -160 -175 -490 -505 -377 -377
-561 -554 -593 -569 -21 -11 -21 -10 1 9 13 11 21 25 17 31 -3 6 -16 -1 -31
-17 -13 -14 -26 -24 -29 -21 -3 2 12 20 32 39 20 19 33 29 29 22 -10 -19 9
-24 30 -8 18 15 18 15 -1 8 -11 -4 3 12 30 36 72 61 115 101 109 101 -3 0 18
21 47 48 30 26 73 67 96 92 24 24 43 40 43 35 0 -5 11 5 23 23 13 17 26 29 30
26 3 -3 8 4 12 15 3 12 11 19 16 16 5 -4 9 0 9 7 0 7 21 35 48 62 72 75 4 20
-128 -103 -63 -59 -166 -154 -227 -211 -80 -73 -109 -107 -100 -113 7 -5 4 -6
-10 -2 -14 4 -26 0 -35 -12 -7 -10 -40 -40 -73 -68 -33 -27 -130 -118 -215
-201 -241 -233 -500 -478 -740 -698 -41 -38 -103 -97 -136 -130 -146 -145
-352 -344 -389 -375 -22 -19 -110 -101 -195 -181 -218 -207 -437 -399 -514
-451 -36 -24 -66 -47 -66 -51 0 -5 84 -8 188 -8 281 0 340 19 463 147 215 224
393 402 399 398 3 -2 12 1 20 7 12 8 11 9 -5 4 -13 -4 -4 9 25 38 35 33 49 42
62 35 23 -12 37 -11 16 2 -10 5 -18 16 -18 23 0 12 44 56 56 56 3 0 15 11 26
25 11 14 29 30 41 36 17 9 16 5 -6 -16 -17 -16 -27 -35 -24 -44 5 -22 -18 -55
-32 -46 -7 3 -8 0 -5 -9 4 -10 1 -16 -7 -16 -7 0 -10 -2 -7 -5 7 -7 -53 -71
-64 -68 -4 2 -8 -2 -8 -8 0 -9 -59 -89 -80 -109 -3 -3 -59 -66 -125 -140 -126
-142 -225 -245 -312 -323 -63 -57 -75 -88 -42 -111 40 -28 113 -20 209 24 47
21 84 43 83 49 -2 6 4 8 14 4 12 -5 14 -3 8 7 -5 9 -4 11 4 6 7 -5 34 7 64 28
61 42 193 184 189 203 -2 8 3 10 13 7 10 -4 15 0 15 14 0 29 10 52 23 52 7 0
7 -4 -1 -12 -17 -17 -15 -33 3 -18 8 7 15 24 15 37 0 17 4 23 14 20 8 -3 25
10 41 32 42 55 70 72 124 74 37 2 47 -1 44 -11 -4 -10 2 -11 23 -6 25 6 27 5
13 -7 -13 -12 -14 -20 -4 -47 6 -18 15 -29 20 -25 5 5 4 1 -3 -8 -9 -12 -9
-18 0 -27 17 -17 3 -25 -20 -13 -18 9 -19 8 -14 -11 4 -16 2 -20 -10 -15 -11
4 -25 -7 -44 -36 -16 -23 -51 -73 -79 -112 -87 -120 -102 -168 -64 -206 37
-37 84 -23 276 80 40 21 84 46 97 55 25 16 97 108 176 226 74 111 190 262 244
318 77 81 129 101 172 66 10 -8 12 -12 4 -8 -13 7 -13 5 -1 -9 7 -9 10 -25 7
-34 -6 -17 -5 -17 6 -1 37 50 292 472 370 612 27 49 61 107 77 130 15 22 67
109 116 191 48 83 103 175 122 205 104 172 262 436 301 505 24 44 59 103 76
130 18 28 59 97 91 155 86 156 304 512 402 659 30 44 76 142 70 148 -3 2 -8
-5 -12 -16 -3 -12 -11 -21 -16 -21 -14 0 -4 43 17 77 16 23 16 26 2 15 -9 -7
-51 -66 -94 -130 -43 -64 -110 -160 -148 -212 -39 -52 -95 -131 -125 -175 -29
-44 -60 -88 -69 -97 -8 -10 -12 -18 -8 -18 9 0 -81 -142 -172 -272 -41 -59
-79 -106 -84 -105 -6 1 -11 -7 -12 -19 -2 -11 -19 -42 -39 -69 -20 -26 -37
-52 -37 -58 0 -6 -3 -8 -6 -4 -4 3 8 30 25 59 28 47 29 50 6 23 -36 -42 -57
-83 -49 -97 4 -6 3 -8 -3 -5 -14 9 -77 -59 -68 -72 3 -6 1 -10 -6 -9 -6 2 -14
-3 -17 -11 -2 -8 0 -11 5 -8 5 3 10 0 10 -8 0 -10 -4 -12 -12 -5 -15 12 -35
-7 -28 -26 4 -11 9 -12 19 -3 12 10 13 9 8 -5 -4 -10 -12 -15 -20 -12 -7 3
-15 0 -17 -7 -2 -7 -3 -3 -1 7 3 18 2 18 -13 3 -14 -14 -14 -18 -2 -34 12 -16
12 -17 -2 -6 -13 11 -20 9 -37 -10 -12 -13 -20 -26 -16 -29 3 -4 -1 -19 -10
-35 -17 -32 -22 -24 -5 10 9 21 9 21 -5 4 -9 -12 -13 -31 -9 -53 5 -30 3 -33
-11 -28 -12 5 -16 2 -14 -7 3 -15 -2 -19 -23 -19 -7 0 -8 5 -3 13 5 7 -1 1
-14 -13 -12 -14 -38 -47 -56 -75 -19 -27 -82 -113 -140 -190 -59 -77 -134
-180 -168 -230 -34 -49 -82 -117 -107 -150 -26 -33 -82 -112 -126 -175 -43
-63 -93 -133 -110 -156 -16 -23 -37 -51 -45 -64 -8 -13 -42 -59 -75 -104 -57
-78 -105 -146 -315 -455 -52 -77 -96 -138 -98 -137 -5 6 70 140 98 176 35 45
41 65 31 92 -12 31 12 76 45 84 18 5 23 11 18 23 -4 9 -6 23 -6 31 0 9 -10 16
-26 17 -52 3 -117 18 -107 24 23 14 65 19 63 8 -2 -6 4 -14 12 -16 12 -4 12
-3 2 5 -20 13 9 23 51 17 l32 -5 -35 16 c-23 11 -36 12 -38 5 -6 -19 -25 -12
-19 8 6 23 -18 18 -27 -5 -7 -19 -42 -18 -50 1 -3 8 -16 15 -28 15 -18 0 -20
2 -8 9 8 6 18 7 22 5 4 -3 8 -1 8 4 0 5 -13 12 -29 15 -28 6 -29 8 -18 36 6
16 15 28 19 25 4 -3 8 0 8 5 0 6 9 11 19 11 14 0 18 5 14 18 -6 23 41 56 65
47 14 -5 14 -4 5 6 -10 10 -20 9 -47 -4 -29 -14 -34 -14 -29 -2 3 8 12 15 21
15 8 0 12 3 9 7 -4 3 -18 1 -31 -7 -14 -7 -32 -10 -40 -7 -10 4 -16 1 -16 -8
0 -8 5 -15 10 -15 6 0 10 -4 10 -9 0 -14 -51 -9 -57 6 -3 8 -12 12 -19 9 -24
-9 -15 9 22 45 20 18 68 72 108 119 39 47 106 121 148 165 42 45 90 99 106
120 16 22 52 65 80 95 55 61 61 83 8 31 -29 -28 -34 -30 -40 -15 -4 9 -4 19
-1 22 3 3 5 0 5 -6 0 -20 14 -13 26 12 7 15 8 28 2 34 -5 5 -2 14 8 23 15 12
16 12 10 -9 -5 -13 -3 -22 3 -22 6 0 11 7 11 16 0 8 3 13 8 11 4 -2 18 9 31
25 l24 30 -29 -2 c-55 -4 -57 -1 -23 38 19 22 40 36 48 34 9 -4 12 -1 7 6 -9
15 123 164 137 155 6 -3 7 -2 4 4 -8 12 59 87 71 79 5 -3 9 0 8 8 0 8 94 112
209 232 116 121 269 280 340 354 72 74 182 191 245 260 63 69 149 161 190 205
41 44 107 116 145 160 39 44 93 105 121 135 221 240 398 455 388 471 -4 7 -3
9 4 5 6 -3 14 -1 17 5 14 22 -4 19 -34 -7z m-1606 -1544 c-10 -11 -13 -20 -7
-20 6 0 18 10 26 22 9 12 16 16 16 9 0 -8 6 -11 17 -6 11 4 7 -5 -11 -24 -32
-33 -50 -43 -23 -13 26 28 20 38 -7 13 -17 -16 -25 -19 -28 -9 -4 11 -8 11
-24 -1 -10 -7 -3 1 16 18 39 35 52 41 25 11z m650 -70 c3 -6 -1 -7 -9 -4 -10
4 -16 1 -16 -7 0 -7 -3 -10 -6 -6 -7 7 4 27 16 27 5 0 12 -4 15 -10z m-995
-565 c-7 -9 -15 -13 -18 -10 -3 2 1 11 8 20 7 9 15 13 18 10 3 -2 -1 -11 -8
-20z m80 21 c0 -2 -7 -7 -16 -10 -8 -3 -12 -2 -9 4 6 10 25 14 25 6z m-520
-536 c0 -5 -5 -10 -11 -10 -5 0 -7 5 -4 10 3 6 8 10 11 10 2 0 4 -4 4 -10z
m-160 -159 c0 -6 -4 -13 -10 -16 -5 -3 -10 1 -10 9 0 9 5 16 10 16 6 0 10 -4
10 -9z m105 -21 c-10 -11 -20 -18 -22 -16 -3 2 4 13 13 25 10 11 20 18 23 16
2 -3 -4 -14 -14 -25z m46 7 c-6 -8 -8 -17 -4 -21 4 -4 0 -4 -10 0 -14 5 -15 9
-6 20 6 8 16 14 21 14 7 0 6 -5 -1 -13z m-41 -47 c0 -5 -4 -10 -10 -10 -5 0
-10 5 -10 10 0 6 5 10 10 10 6 0 10 -4 10 -10z m55 -20 c-3 -5 -13 -10 -21
-10 -8 0 -12 5 -9 10 3 6 13 10 21 10 8 0 12 -4 9 -10z m2 -62 c-3 -7 -5 -2
-5 12 0 14 2 19 5 13 2 -7 2 -19 0 -25z m-167 12 c0 -5 -4 -10 -10 -10 -5 0
-10 5 -10 10 0 6 5 10 10 10 6 0 10 -4 10 -10z m130 -19 c0 -6 -4 -13 -10 -16
-5 -3 -10 1 -10 9 0 9 5 16 10 16 6 0 10 -4 10 -9z m113 -28 c-7 -2 -21 -2
-30 0 -10 3 -4 5 12 5 17 0 24 -2 18 -5z m109 -62 l28 -6 -25 -12 c-14 -6 -25
-7 -25 -2 0 5 -18 9 -41 9 -24 0 -38 4 -34 10 7 11 53 11 97 1z m-68 -38 c-13
-13 -19 -14 -22 -5 -2 7 -9 9 -14 6 -7 -4 -8 -2 -4 4 4 7 18 12 32 12 24 0 25
-1 8 -17z m-94 -8 c0 -1 -6 -7 -13 -13 -10 -8 -13 -6 -13 7 0 11 6 17 13 14 7
-3 13 -6 13 -8z m166 2 c-8 -7 -20 -25 -26 -41 -10 -28 -11 -28 -30 -11 -24
22 -26 40 -4 31 22 -9 37 3 25 18 -8 10 -4 13 20 14 26 1 29 -1 15 -11z m-97
-29 c0 -13 -3 -17 -6 -10 -5 12 -43 18 -43 6 0 -3 5 -15 11 -27 11 -21 11 -21
-11 1 -21 23 -21 24 -4 37 29 22 54 19 53 -7z m-202 -4 c-3 -3 -12 -4 -19 -1
-8 3 -5 6 6 6 11 1 17 -2 13 -5z m243 -54 c0 -5 -4 -10 -10 -10 -5 0 -10 5
-10 10 0 6 5 10 10 10 6 0 10 -4 10 -10z m27 -12 c-3 -8 -6 -5 -6 6 -1 11 2
17 5 13 3 -3 4 -12 1 -19z m-27 -48 c0 -5 -4 -10 -10 -10 -5 0 -10 5 -10 10 0
6 5 10 10 10 6 0 10 -4 10 -10z m-33 -72 c-3 -7 -5 -2 -5 12 0 14 2 19 5 13 2
-7 2 -19 0 -25z m-81 -190 c-18 -26 -22 -17 -5 14 6 11 13 17 16 15 3 -3 -2
-16 -11 -29z"/>
<path d="M975 4559 c-14 -44 15 -52 169 -45 77 4 141 7 142 9 1 1 4 12 8 23 6
19 2 22 -31 26 -21 3 -93 6 -160 7 -117 2 -122 1 -128 -20z"/>
<path d="M4610 4529 c0 -5 5 -7 10 -4 6 3 10 8 10 11 0 2 -4 4 -10 4 -5 0 -10
-5 -10 -11z"/>
<path d="M4543 4471 c0 -11 5 -18 9 -15 4 3 5 11 1 19 -7 21 -12 19 -10 -4z"/>
<path d="M5260 4417 c0 -26 72 -347 99 -442 16 -55 47 -190 70 -301 23 -110
53 -241 67 -290 43 -155 111 -427 118 -476 l7 -48 -29 0 c-28 0 -31 4 -46 63
-8 34 -25 110 -36 168 -11 58 -29 134 -40 170 -12 35 -28 91 -35 124 -8 33
-13 45 -11 28 1 -18 -1 -33 -6 -33 -4 0 -8 10 -8 23 0 12 -7 30 -14 40 -12 16
-14 16 -20 2 -3 -9 -2 -13 4 -10 6 3 10 -5 10 -19 0 -27 -14 -35 -24 -13 -3 6
-4 0 -1 -15 3 -15 0 -30 -5 -33 -6 -4 -10 -3 -9 2 1 4 -3 21 -10 37 -12 31
-24 27 -35 -11 -5 -16 -2 -23 14 -28 20 -6 21 -7 3 -21 -10 -7 -26 -14 -36
-14 -18 0 -18 -11 -13 -215 3 -126 2 -215 -3 -215 -5 0 -18 11 -29 24 -16 22
-20 49 -25 218 -4 106 -13 303 -21 438 -8 135 -20 335 -26 445 -15 282 -22
357 -31 348 -9 -10 -16 -69 -33 -283 -8 -96 -19 -220 -25 -275 -13 -124 -32
-405 -38 -588 -4 -117 -7 -138 -20 -133 -8 3 -25 6 -39 6 -17 0 -22 4 -17 15
3 10 0 15 -8 13 -7 -2 -13 3 -14 10 0 8 -7 19 -16 25 -16 12 -22 47 -7 47 4 0
8 10 7 23 l0 22 -16 -22 c-23 -33 -43 -29 -44 10 -2 27 -2 28 -6 7 -7 -35 -21
-48 -16 -13 4 27 4 27 -11 9 -9 -11 -16 -15 -16 -9 0 6 9 21 19 35 13 16 17
29 10 39 -5 8 -9 21 -9 29 0 13 1 13 10 0 9 -13 10 -13 9 0 0 8 -4 23 -8 33
-5 14 -10 5 -20 -35 -7 -29 -32 -123 -56 -208 -49 -175 -77 -275 -111 -404
-12 -49 -27 -92 -31 -97 -15 -14 -83 -38 -83 -29 0 5 19 64 43 132 24 68 52
155 62 193 9 39 30 113 46 165 47 159 109 389 133 495 13 55 35 147 50 205 28
117 101 497 109 575 l6 50 -15 -39 c-19 -52 -26 -57 -18 -15 10 60 -13 10 -60
-132 -24 -74 -54 -170 -66 -214 -37 -137 -41 -149 -52 -134 -7 10 -8 5 -3 -14
4 -21 3 -27 -6 -21 -8 5 -10 2 -6 -8 6 -17 -20 -117 -34 -132 -5 -6 -9 -18 -9
-28 0 -10 -7 -21 -14 -24 -8 -3 -20 -29 -26 -57 -20 -98 -87 -293 -93 -272 -4
11 -4 2 -1 -20 3 -28 2 -36 -5 -25 -8 12 -14 7 -27 -25 -10 -22 -19 -45 -20
-52 -1 -7 -9 -27 -18 -44 -9 -18 -16 -39 -16 -47 0 -13 -17 -55 -67 -171 -9
-19 -16 -44 -17 -57 0 -13 -5 -24 -10 -24 -4 0 -5 -7 -2 -16 3 -8 2 -12 -4 -9
-6 3 -10 0 -10 -8 0 -13 -18 -60 -56 -144 -8 -17 -14 -35 -14 -40 0 -4 -25
-71 -56 -148 -30 -77 -70 -187 -89 -245 -18 -58 -77 -231 -129 -385 -130 -378
-227 -677 -281 -862 -5 -20 -3 -23 20 -23 37 0 69 37 117 135 23 47 50 91 60
96 10 5 60 12 111 14 91 4 92 5 104 34 13 31 97 326 158 551 20 74 52 191 72
260 20 69 40 146 46 173 12 53 23 58 56 23 l23 -24 -27 -82 c-14 -46 -30 -117
-36 -159 -5 -42 -19 -110 -31 -151 -11 -41 -29 -110 -39 -152 -10 -42 -28
-103 -39 -135 -12 -32 -34 -114 -51 -183 -44 -187 -88 -317 -126 -372 -40 -60
-41 -72 -8 -94 42 -28 131 -14 196 30 50 34 59 36 130 36 85 0 142 18 160 51
19 37 49 150 63 244 25 165 48 192 168 202 55 5 77 11 91 26 16 19 17 14 17
-124 0 -208 -13 -191 145 -188 l133 3 7 51 c3 28 2 89 -4 136 -5 46 -13 134
-16 194 -9 158 -15 243 -20 298 -3 27 -1 56 5 65 5 10 10 12 10 5 0 -7 9 -13
20 -13 11 0 20 -6 21 -12 0 -7 4 -44 9 -83 17 -138 30 -262 36 -356 l6 -96 37
10 c51 14 105 1 144 -33 28 -24 36 -42 50 -108 33 -152 87 -191 213 -152 36
11 86 20 110 20 77 0 142 -60 149 -136 3 -31 0 -35 -28 -42 -18 -5 -42 -5 -54
-1 -14 5 -23 5 -23 -1 0 -6 -7 -10 -15 -10 -34 0 -12 -19 28 -25 52 -8 110 13
127 45 9 17 8 30 -5 63 -40 98 -80 224 -125 397 -26 102 -66 253 -89 335 -22
83 -41 173 -41 201 0 50 -29 147 -69 234 -11 25 -21 57 -21 72 0 16 -9 55 -20
87 -19 55 -20 62 -6 96 29 68 50 27 106 -205 23 -96 57 -222 76 -280 40 -128
123 -427 157 -570 14 -58 32 -123 41 -144 14 -33 19 -37 38 -31 13 4 53 12 91
18 102 16 114 9 168 -103 39 -80 54 -99 90 -123 24 -15 45 -23 47 -18 2 5 -4
26 -13 48 -24 54 -83 222 -171 483 -92 273 -193 551 -205 566 -5 6 -6 14 -2
17 3 4 2 7 -3 7 -5 0 -9 15 -10 33 0 17 -9 50 -19 72 -10 22 -19 47 -20 55 -2
8 -19 60 -39 115 -20 55 -34 88 -31 73 3 -16 1 -28 -4 -28 -6 0 -8 -8 -4 -17
4 -14 2 -13 -10 3 -9 11 -18 34 -21 50 -6 26 -5 25 8 -6 17 -41 21 -27 5 18
-6 18 -14 30 -19 27 -12 -7 -31 45 -25 69 4 13 3 16 -2 9 -6 -8 -14 3 -25 33
-8 24 -12 44 -8 44 4 0 3 17 -2 38 -6 20 -12 57 -15 82 -4 36 -13 52 -42 80
-29 28 -41 49 -55 105 -10 39 -35 121 -57 182 -21 62 -36 120 -32 130 5 12 3
14 -7 8 -10 -6 -12 -4 -7 9 4 9 3 24 -2 34 -4 9 -15 33 -24 52 -17 36 -104
290 -183 535 -25 77 -58 176 -75 220 -16 44 -46 125 -65 180 -35 96 -49 119
-66 109 -4 -3 -8 2 -8 10 0 9 -4 16 -10 16 -5 0 -10 -6 -10 -13z m-420 -1283
c0 -21 18 -17 25 7 7 20 7 20 26 -2 24 -28 24 -32 -1 -24 -21 7 -23 3 -34 -47
-4 -16 -13 -28 -20 -28 -10 0 -14 16 -15 60 0 37 3 59 9 55 6 -3 10 -13 10
-21z m106 -35 c3 -6 1 -16 -6 -22 -10 -9 -11 -9 -6 1 9 15 -6 16 -22 0 -7 -7
-12 -8 -12 -2 0 12 21 34 31 34 4 0 11 -5 15 -11z m119 -121 c20 -17 77 -80
127 -140 50 -59 92 -108 94 -108 2 0 50 11 107 24 56 14 129 27 162 31 33 3
88 11 122 17 69 13 93 3 93 -37 0 -21 -169 -286 -211 -331 l-20 -22 79 -158
c100 -201 108 -222 94 -236 -9 -9 -25 -8 -64 1 -29 7 -109 26 -178 42 -69 16
-146 37 -172 46 l-48 17 -134 -133 c-123 -122 -179 -171 -198 -171 -18 0 -28
49 -39 206 -7 93 -16 178 -20 190 -5 14 -60 46 -172 102 -158 77 -207 107
-207 124 0 13 212 107 355 159 78 27 80 29 87 66 62 326 66 343 93 343 8 0 31
-14 50 -32z m448 -115 c-7 -2 -19 -2 -25 0 -7 3 -2 5 12 5 14 0 19 -2 13 -5z
m536 -523 c0 -10 -3 -8 -9 5 -12 27 -12 43 0 25 5 -8 9 -22 9 -30z m2 -63
c-10 -9 -11 -8 -5 6 3 10 9 15 12 12 3 -3 0 -11 -7 -18z m13 -34 c-6 -27 -6
-27 10 -8 9 11 15 16 15 10 -1 -5 3 -23 9 -38 16 -38 15 -52 -5 -68 -15 -13
-15 -12 -4 10 9 15 9 21 2 16 -15 -9 -44 60 -36 86 10 29 16 23 9 -8z m66
-113 c0 -5 -4 -10 -10 -10 -5 0 -10 5 -10 10 0 6 5 10 10 10 6 0 10 -4 10 -10z
m-21 -50 c0 -10 -3 -8 -9 5 -12 27 -12 43 0 25 5 -8 9 -22 9 -30z m-804 -140
c-3 -5 -12 -10 -18 -10 -7 0 -6 4 3 10 19 12 23 12 15 0z m-645 -135 c16 -20
16 -61 0 -80 -9 -11 -26 -15 -54 -13 -37 3 -41 6 -44 31 -7 60 63 104 98 62z"/>
<path d="M5155 2344 c-41 -52 -128 -154 -178 -208 -27 -29 -28 -34 -22 -91 12
-119 17 -140 27 -122 5 10 7 21 4 26 -8 12 4 41 16 41 6 0 5 -7 -2 -15 -7 -9
-10 -18 -6 -22 3 -4 14 4 23 18 10 13 40 49 69 79 28 30 71 76 94 103 24 26
48 47 55 47 6 0 31 -10 56 -22 35 -17 268 -77 301 -78 4 0 2 11 -4 25 -6 14
-14 25 -18 25 -4 0 -12 12 -19 26 -6 15 -14 24 -17 21 -4 -3 -41 19 -84 49
-43 29 -81 54 -86 54 -4 0 -15 6 -23 14 -9 8 -45 29 -81 48 l-66 34 -39 -52z
m-168 -336 c-3 -8 -6 -5 -6 6 -1 11 2 17 5 13 3 -3 4 -12 1 -19z"/>
<path d="M4255 4060 c-16 -17 -26 -30 -23 -30 10 0 62 49 57 54 -3 3 -18 -8
-34 -24z"/>
<path d="M4174 3978 c-29 -31 -29 -31 -2 -12 15 10 29 25 32 32 8 18 2 15 -30
-20z"/>
<path d="M4089 3893 l-24 -28 28 24 c25 23 32 31 24 31 -2 0 -14 -12 -28 -27z"/>
<path d="M8228 3863 c6 -2 18 -2 25 0 6 3 1 5 -13 5 -14 0 -19 -2 -12 -5z"/>
<path d="M4014 3815 c-15 -14 -23 -25 -17 -25 5 0 20 11 33 25 13 14 21 25 17
25 -3 0 -18 -11 -33 -25z"/>
<path d="M3870 3680 c-13 -8 -12 -10 3 -10 9 0 17 5 17 10 0 12 -1 12 -20 0z"/>
<path d="M6760 3616 c-89 -16 -98 -22 -69 -52 52 -52 636 -591 660 -609 34
-26 277 -244 399 -360 225 -212 578 -532 805 -730 110 -95 257 -230 289 -264
17 -17 33 -31 36 -31 4 0 8 26 9 58 0 31 4 75 7 97 8 59 -12 161 -43 223 -56
111 -144 186 -338 287 -60 31 -112 60 -115 64 -3 3 -24 19 -47 35 -24 16 -43
30 -43 31 0 2 10 3 23 2 20 -1 79 16 280 79 115 36 209 95 307 193 148 149
208 298 202 504 -2 43 -6 57 -17 57 -8 0 -15 5 -15 11 0 5 5 7 10 4 13 -8 12
11 -4 64 -11 40 -13 42 -19 20 -4 -13 -7 -37 -7 -54 0 -23 -3 -27 -10 -15 -8
12 -10 10 -10 -9 l0 -24 -21 27 c-20 25 -49 35 -49 17 0 -13 -57 -6 -75 9 -8
7 -15 9 -15 5 0 -4 -7 -1 -16 6 -14 12 -15 8 -9 -41 3 -30 8 -68 9 -83 2 -16
9 -33 17 -38 11 -7 11 -9 -3 -9 -12 0 -19 -11 -23 -37 -14 -86 -59 -176 -120
-242 -73 -78 -121 -101 -234 -113 -85 -8 -141 2 -141 27 0 5 -20 11 -45 12
-25 1 -54 7 -65 13 -12 7 -21 7 -25 0 -3 -5 -11 -10 -16 -10 -6 0 -3 7 5 16
20 20 21 44 0 44 -8 0 -13 4 -10 9 4 5 1 11 -6 13 -8 3 -1 12 15 23 27 17 29
17 77 -6 57 -28 63 -39 19 -39 -22 0 -28 -3 -22 -12 4 -7 8 -16 8 -20 0 -13
15 -21 15 -8 0 7 3 11 6 7 3 -3 17 5 31 17 14 13 44 26 67 29 123 17 275 168
276 274 0 17 -5 33 -12 35 -28 10 -64 -6 -83 -35 -20 -31 -67 -63 -95 -65 -8
0 -35 -6 -59 -13 -29 -8 -45 -9 -50 -2 -3 6 -25 16 -48 23 -24 7 -43 17 -43
22 0 4 -5 8 -11 8 -7 0 -31 16 -55 35 -23 19 -54 36 -68 37 -32 3 -37 25 -18
85 16 50 85 153 102 153 6 0 10 5 10 11 0 6 -7 8 -16 5 -9 -3 -12 -2 -9 5 4 5
15 7 24 4 10 -3 31 2 48 10 17 9 45 17 61 18 17 1 28 6 25 10 -3 5 3 8 13 7
52 -6 64 -1 64 29 0 20 6 30 20 34 11 3 20 10 20 17 0 8 -15 10 -47 6 -37 -4
-41 -3 -18 3 29 8 28 9 -15 11 -32 2 -37 4 -17 7 45 7 139 -16 133 -33 -10
-25 5 -42 40 -49 28 -5 33 -9 25 -19 -9 -11 -5 -12 16 -8 16 3 32 11 36 18 10
17 27 18 27 3 0 -16 26 -39 35 -31 4 4 4 -4 1 -18 -5 -16 -4 -20 2 -12 7 10
16 6 41 -18 17 -17 31 -39 31 -49 0 -10 9 -26 20 -36 64 -58 -5 82 -73 148
-156 152 -384 191 -567 97 -42 -21 -133 -110 -168 -162 -13 -21 -29 -38 -33
-38 -5 0 -10 -15 -10 -32 -2 -31 -2 -31 -6 -5 -3 19 -10 27 -24 27 -11 0 -22
7 -25 15 -4 10 -20 15 -45 15 -32 0 -39 3 -39 20 0 11 -5 19 -12 17 -7 -1 -17
7 -22 19 -8 19 -13 15 -41 -41 -40 -80 -52 -124 -54 -205 -2 -64 -9 -87 -18
-62 -3 6 -9 10 -14 7 -5 -3 -18 -1 -29 5 -16 9 -25 8 -36 -1 -10 -8 -14 -8
-14 0 0 7 -28 11 -81 11 -44 0 -99 5 -123 11 l-43 11 -21 83 c-53 216 -159
329 -357 380 -68 17 -124 18 -215 1z m1650 -135 c0 -27 -15 -41 -41 -41 -16 0
-29 -4 -29 -10 0 -5 -9 -10 -19 -10 -11 0 -22 -4 -25 -9 -3 -5 -15 -7 -26 -4
-33 9 -31 20 2 15 24 -4 29 -2 23 8 -6 10 -4 12 8 7 14 -5 17 0 17 23 0 29 2
30 45 30 25 0 45 -4 45 -9z m677 -233 c-3 -7 -5 -2 -5 12 0 14 2 19 5 13 2 -7
2 -19 0 -25z m-1175 -275 c8 -10 19 -30 25 -44 6 -15 29 -35 50 -45 55 -27 55
-50 -1 -75 -32 -14 -46 -26 -46 -40 0 -25 -45 -47 -68 -33 -9 6 -19 21 -22 33
-3 11 -21 29 -40 39 -49 24 -52 57 -7 76 21 8 38 24 42 38 9 30 33 68 44 68 4
0 14 -8 23 -17z m268 -64 c-7 -11 -14 -18 -17 -15 -8 8 5 36 17 36 7 0 7 -6 0
-21z m36 -134 c-23 -17 -36 -19 -36 -6 0 11 18 19 40 20 11 0 10 -3 -4 -14z
m33 -214 l23 -18 -28 -22 c-35 -28 -78 -25 -82 6 -2 13 5 27 20 37 28 20 37
20 67 -3z"/>
<path d="M1419 3517 c6 -8 8 -17 4 -20 -3 -4 -1 -7 6 -7 8 0 11 7 7 15 -3 8
-1 15 4 15 5 0 11 -21 13 -47 l3 -48 2 53 c2 50 1 52 -24 52 -21 0 -24 -3 -15
-13z"/>
<path d="M1328 3463 c-56 -6 -46 -23 13 -23 35 0 49 4 47 12 -5 14 -12 16 -60
11z"/>
<path d="M8469 3429 c-10 -6 -7 -9 14 -9 29 0 35 5 14 13 -8 3 -20 1 -28 -4z"/>
<path d="M8528 3433 c6 -2 18 -2 25 0 6 3 1 5 -13 5 -14 0 -19 -2 -12 -5z"/>
<path d="M8576 3425 c4 -8 10 -15 15 -15 4 0 6 7 3 15 -4 8 -10 15 -15 15 -4
0 -6 -7 -3 -15z"/>
<path d="M4851 3404 c0 -11 3 -14 6 -6 3 7 2 16 -1 19 -3 4 -6 -2 -5 -13z"/>
<path d="M8542 3404 c10 -10 20 -16 22 -13 3 3 -5 11 -17 18 -21 13 -21 12 -5
-5z"/>
<path d="M1450 3305 c0 -14 4 -25 9 -25 4 0 6 11 3 25 -2 14 -6 25 -8 25 -2 0
-4 -11 -4 -25z"/>
<path d="M1191 3274 c0 -11 3 -14 6 -6 3 7 2 16 -1 19 -3 4 -6 -2 -5 -13z"/>
<path d="M1173 3223 c1 -74 -8 -90 -17 -32 -4 23 -8 40 -11 38 -2 -2 0 -29 5
-59 4 -30 8 -48 9 -40 1 13 2 13 11 0 18 -28 22 0 12 77 l-10 78 1 -62z"/>
<path d="M1213 3113 c9 -2 25 -2 35 0 9 3 1 5 -18 5 -19 0 -27 -2 -17 -5z"/>
<path d="M7020 2786 c0 -2 8 -10 18 -17 15 -13 16 -12 3 4 -13 16 -21 21 -21
13z"/>
<path d="M7070 2730 c6 -11 13 -20 16 -20 2 0 0 9 -6 20 -6 11 -13 20 -16 20
-2 0 0 -9 6 -20z"/>
<path d="M9109 2651 c-16 -16 -29 -39 -29 -50 0 -83 100 -125 155 -65 36 39
34 85 -6 118 -41 35 -83 34 -120 -3z"/>
<path d="M1935 2643 c-38 -8 -99 -34 -127 -54 -15 -11 -33 -17 -39 -13 -7 4
-9 3 -6 -3 3 -5 -12 -26 -33 -46 -21 -21 -40 -34 -42 -30 -3 4 -3 2 -2 -5 2
-7 -6 -27 -17 -45 -18 -28 -20 -29 -14 -7 6 22 4 21 -15 -7 -20 -30 -41 -48
-24 -21 11 17 12 68 2 62 -5 -3 -6 -14 -3 -24 3 -10 1 -21 -5 -25 -5 -3 -10 1
-10 9 0 18 -52 58 -100 76 -41 16 -70 48 -62 69 4 10 -1 8 -15 -5 -15 -14 -17
-22 -9 -33 9 -12 7 -13 -8 -8 -14 5 -17 3 -12 -8 3 -8 0 -14 -7 -12 -7 1 -11
-6 -11 -15 1 -10 -2 -16 -6 -13 -7 4 -70 -107 -70 -123 0 -4 4 -1 8 6 7 10 12
8 25 -6 16 -18 16 -20 -8 -48 -14 -16 -25 -39 -25 -52 0 -18 -4 -22 -17 -18
-55 17 -63 -35 -62 -424 1 -184 4 -359 7 -389 l7 -54 41 34 c22 19 65 59 95
90 30 30 128 119 219 198 91 79 235 210 320 291 182 173 259 244 309 285 20
16 67 60 104 97 l68 67 -20 38 c-20 39 -77 98 -122 125 -48 30 -131 48 -213
47 -45 -1 -90 -3 -101 -6z m-495 -108 c0 -8 -3 -16 -7 -18 -5 -3 -8 5 -8 18 0
13 3 21 8 18 4 -2 7 -10 7 -18z m726 -147 c8 -16 13 -28 12 -29 -38 -11 -98
17 -83 40 3 5 -5 7 -17 4 -19 -4 -20 -3 -8 6 12 9 11 11 -10 12 -23 0 -23 1
-5 9 19 8 19 9 -2 9 -32 1 -54 -9 -46 -23 3 -6 1 -6 -8 2 -18 16 -2 30 41 34
44 5 107 -27 126 -64z m-187 39 c-2 -1 -13 -9 -24 -17 -19 -14 -19 -14 -6 3 7
9 18 17 24 17 6 0 8 -1 6 -3z m-341 -37 c-7 -10 -14 -17 -17 -15 -4 4 18 35
25 35 2 0 -1 -9 -8 -20z"/>
<path d="M7165 2620 c16 -16 30 -28 32 -26 6 5 -42 56 -53 56 -4 0 5 -13 21
-30z"/>
<path d="M7270 2581 c0 -5 7 -11 14 -14 10 -4 13 -1 9 9 -6 15 -23 19 -23 5z"/>
<path d="M1455 2570 c3 -5 8 -10 11 -10 2 0 4 5 4 10 0 6 -5 10 -11 10 -5 0
-7 -4 -4 -10z"/>
<path d="M2920 2473 c0 -5 -11 -15 -25 -21 -14 -6 -25 -17 -24 -24 0 -10 2
-10 5 -1 3 7 11 10 19 7 14 -6 41 33 31 44 -3 3 -6 1 -6 -5z"/>
<path d="M2979 2478 c-1 -2 -2 -15 -3 -30 -2 -26 -1 -26 16 -11 10 9 18 21 17
27 0 6 -3 6 -6 -1 -2 -7 -9 -13 -15 -13 -6 0 -8 7 -4 15 4 12 0 23 -5 13z"/>
<path d="M9009 2404 c-14 -17 -5 -40 23 -58 23 -14 48 9 48 45 0 25 -4 29 -29
29 -16 0 -34 -7 -42 -16z"/>
<path d="M2910 2365 c-13 -14 -19 -25 -14 -25 8 1 50 50 41 50 -2 0 -14 -11
-27 -25z"/>
<path d="M1315 2350 c-3 -5 -1 -10 4 -10 6 0 11 5 11 10 0 6 -2 10 -4 10 -3 0
-8 -4 -11 -10z"/>
<path d="M8791 2293 c-53 -45 -24 -133 44 -133 25 0 40 8 59 31 33 39 33 54
-3 90 -34 33 -69 37 -100 12z"/>
<path d="M793 2243 c-39 -18 -66 -66 -66 -116 0 -34 6 -46 38 -75 33 -31 42
-34 79 -29 52 7 106 61 106 107 0 34 -20 79 -44 99 -27 23 -82 30 -113 14z"/>
<path d="M9090 2227 c-54 -42 -66 -112 -25 -152 51 -52 140 -19 152 57 5 33 2
41 -30 73 -36 36 -70 44 -97 22z"/>
<path d="M6216 2067 c3 -10 9 -15 12 -12 3 3 0 11 -7 18 -10 9 -11 8 -5 -6z"/>
<path d="M6680 2076 c0 -4 14 -27 31 -51 17 -24 29 -47 26 -53 -4 -5 0 -9 8
-9 11 0 12 5 3 21 -16 30 -68 100 -68 92z"/>
<path d="M6770 1911 c0 -5 7 -12 16 -15 14 -5 15 -4 4 9 -14 17 -20 19 -20 6z"/>
<path d="M7790 1872 c0 -10 22 -32 32 -32 15 0 8 15 -12 28 -11 7 -20 9 -20 4z"/>
<path d="M6805 1849 c-5 -14 -12 -18 -23 -13 -10 4 -35 8 -57 9 -22 2 -80 6
-130 10 -69 6 -104 3 -151 -9 -34 -9 -76 -16 -93 -16 -34 0 -40 -13 -13 -30
15 -10 14 -11 -6 -6 -18 3 -22 1 -18 -11 3 -8 6 -19 6 -24 0 -6 4 -8 9 -5 5 4
7 -3 4 -14 -3 -11 -1 -26 4 -33 6 -6 16 -34 23 -60 10 -36 17 -47 28 -42 12 4
12 3 3 -9 -9 -11 -3 -41 29 -143 51 -162 81 -250 115 -338 15 -38 28 -94 30
-124 4 -67 30 -96 101 -117 90 -26 157 7 193 93 13 33 47 53 86 53 29 0 142
-51 200 -90 80 -54 127 -72 190 -74 110 -2 123 36 41 122 -51 54 -163 221
-266 397 -124 210 -208 344 -214 340 -3 -3 -4 -2 -1 1 8 12 -26 65 -37 58 -6
-4 -8 -3 -4 4 10 17 -14 61 -31 55 -12 -5 -14 -1 -8 15 3 12 4 22 1 22 -2 0
-8 -9 -11 -21z m13 -54 c-3 -3 -9 2 -12 12 -6 14 -5 15 5 6 7 -7 10 -15 7 -18z
m26 9 c3 -8 2 -12 -4 -9 -6 3 -10 10 -10 16 0 14 7 11 14 -7z m-146 -117 c62
-56 -14 -150 -91 -112 -16 8 -33 13 -36 10 -4 -2 -7 26 -8 61 0 36 3 61 7 55
5 -8 14 -8 34 3 32 16 62 11 94 -17z"/>
<path d="M7667 1831 c-2 -10 -1 -25 4 -32 6 -10 9 -4 9 19 0 36 -5 42 -13 13z"/>
<path d="M3416 1774 c-9 -23 -7 -46 3 -40 5 3 9 17 9 31 0 29 -3 31 -12 9z"/>
<path d="M3470 1763 c14 -7 13 -120 -2 -125 -7 -3 -9 -11 -3 -24 7 -17 8 -17
12 -1 6 24 22 22 20 -3 -1 -11 -7 -20 -14 -20 -20 0 -15 -16 9 -32 16 -11 22
-25 23 -56 1 -24 -2 -37 -7 -29 -4 6 -8 24 -8 38 0 15 -7 32 -15 39 -23 19
-31 3 -11 -19 10 -11 16 -28 13 -38 -4 -14 -5 -14 -6 5 -1 25 -21 31 -21 6 0
-8 -4 -13 -9 -10 -5 4 -19 -6 -30 -21 l-22 -28 3 25 c2 14 10 25 18 25 8 1 14
7 12 14 -2 8 3 30 11 50 14 36 13 66 -3 56 -5 -3 -12 0 -15 6 -4 6 2 13 13 16
24 6 37 47 23 71 -9 14 -10 11 -11 -15 0 -45 -17 -41 -36 7 -9 23 -18 39 -21
37 -2 -2 1 -16 6 -31 12 -30 5 -34 -16 -8 -14 16 -14 16 -9 -1 3 -10 2 -15 -4
-12 -12 7 -43 -53 -36 -71 3 -7 0 -16 -6 -20 -7 -5 -8 -2 -4 7 4 8 -2 3 -13
-11 -12 -15 -18 -33 -15 -45 4 -14 3 -16 -4 -7 -7 11 -11 10 -17 -5 -5 -10 -9
-20 -10 -23 0 -3 -18 -31 -38 -62 -20 -31 -37 -59 -37 -61 0 -11 -226 -377
-265 -430 -25 -34 -45 -68 -45 -77 0 -53 85 -54 190 -4 95 45 104 52 89 71
-10 11 -8 12 6 7 13 -5 16 -4 11 4 -5 8 -1 10 10 5 14 -5 16 -3 11 11 -4 9 -3
15 2 12 5 -3 13 0 18 7 14 18 24 49 14 43 -5 -4 -4 5 2 19 7 13 14 20 16 14 4
-14 71 91 70 111 0 10 -3 9 -9 -5 -7 -16 -9 -17 -9 -3 -1 9 4 20 10 23 7 5 5
13 -7 26 -19 22 -12 49 13 48 17 -1 17 -2 1 -6 -19 -5 -23 -15 -11 -26 3 -4
12 -2 20 5 7 6 17 7 21 3 4 -4 1 -10 -5 -12 -7 -3 -13 -9 -13 -14 0 -15 18 -1
31 23 8 15 8 19 0 14 -6 -4 -11 0 -11 8 0 9 6 13 13 10 8 -3 26 15 45 46 18
28 28 49 23 46 -5 -3 -11 1 -15 9 -6 16 26 39 40 27 4 -4 0 5 -9 20 -24 39
-21 48 6 16 14 -16 28 -24 33 -19 14 14 47 15 78 2 26 -10 28 -14 22 -49 -4
-20 -47 -117 -96 -215 -50 -98 -90 -189 -90 -203 0 -34 25 -69 67 -95 32 -20
39 -21 88 -10 29 7 71 24 94 39 41 26 43 31 86 167 49 153 51 161 33 168 -8 3
-6 6 5 6 9 1 17 8 17 17 0 8 -4 12 -10 9 -5 -3 -10 1 -10 9 0 9 6 13 14 10 10
-4 20 6 29 29 22 52 31 101 18 93 -14 -9 -14 9 0 37 7 12 8 19 4 14 -5 -4 -17
1 -28 10 -10 10 -22 17 -26 16 -3 -1 -6 13 -5 33 0 24 -3 33 -12 30 -9 -3 -11
1 -7 11 5 12 3 14 -7 8 -8 -5 -11 -3 -8 6 3 8 13 13 23 11 12 -2 15 1 9 10 -5
7 -10 25 -11 41 -6 65 -6 66 -25 56 -19 -10 -24 0 -9 17 6 5 -3 10 -25 11 -19
2 -34 -2 -34 -8 0 -5 4 -8 9 -4 12 7 51 -43 51 -66 0 -32 -35 -58 -72 -54
l-33 3 30 -13 30 -14 -26 -1 c-28 0 -55 23 -45 38 8 14 -10 67 -23 65 -6 -2
-11 7 -11 18 0 12 -8 27 -17 34 -15 11 -20 10 -35 -8 -23 -26 -23 -38 2 -44
24 -6 25 -12 3 -28 -15 -11 -15 -13 5 -19 24 -8 30 -48 12 -76 -9 -15 -9 -16
-25 35 -2 8 0 15 5 15 5 0 11 -10 13 -22 4 -20 4 -19 6 4 1 18 -6 31 -19 38
-11 6 -17 16 -14 25 4 9 0 15 -9 15 -10 0 -13 9 -11 28 4 39 -9 95 -24 98 -7
1 -8 0 -2 -3z m83 -90 c-3 -7 -9 -10 -14 -7 -14 8 -11 21 5 21 8 0 12 -6 9
-14z m-143 -17 c0 -8 -4 -17 -9 -21 -12 -7 -24 12 -16 25 9 15 25 12 25 -4z
m-40 -16 c0 -5 -2 -10 -4 -10 -3 0 -8 5 -11 10 -3 6 -1 10 4 10 6 0 11 -4 11
-10z m53 -46 c23 -30 15 -44 -11 -21 -24 22 -42 22 -43 0 -1 -16 -2 -16 -6 0
-3 11 3 24 14 32 24 19 25 19 46 -11z m187 5 c0 -5 -4 -9 -10 -9 -5 0 -10 7
-10 16 0 8 5 12 10 9 6 -3 10 -10 10 -16z m140 -8 c0 -12 -50 -44 -57 -37 -6
6 37 45 50 46 4 0 7 -4 7 -9z m-407 -26 c-3 -9 -8 -14 -10 -11 -3 3 -2 9 2 15
9 16 15 13 8 -4z m69 -25 c5 -35 -6 -39 -23 -9 -9 17 -8 23 2 30 8 5 15 9 15
9 1 0 4 -13 6 -30z m-42 -2 c0 -7 -4 -19 -9 -27 -11 -17 -23 1 -15 23 7 19 24
21 24 4z m368 -33 c-3 -3 -9 2 -12 12 -6 14 -5 15 5 6 7 -7 10 -15 7 -18z
m-161 -7 c-3 -8 -6 -5 -6 6 -1 11 2 17 5 13 3 -3 4 -12 1 -19z m130 0 c-3 -8
-6 -5 -6 6 -1 11 2 17 5 13 3 -3 4 -12 1 -19z m49 -17 c-16 -56 -25 -60 -13
-6 6 25 14 45 18 45 4 0 2 -18 -5 -39z m-66 8 c0 -6 -4 -7 -10 -4 -5 3 -10 11
-10 16 0 6 5 7 10 4 6 -3 10 -11 10 -16z m-223 -31 c-3 -8 -6 -5 -6 6 -1 11 2
17 5 13 3 -3 4 -12 1 -19z m250 -15 c-3 -10 -5 -4 -5 12 0 17 2 24 5 18 2 -7
2 -21 0 -30z m-221 -2 c-12 -19 -24 -12 -19 10 4 13 9 17 15 11 6 -6 7 -15 4
-21z m98 13 c3 -8 2 -12 -4 -9 -6 3 -10 10 -10 16 0 14 7 11 14 -7z m-216 -29
c-3 -3 -9 2 -12 12 -6 14 -5 15 5 6 7 -7 10 -15 7 -18z m399 3 c-3 -8 -6 -5
-6 6 -1 11 2 17 5 13 3 -3 4 -12 1 -19z m-357 3 c0 -6 -4 -13 -10 -16 -5 -3
-10 1 -10 9 0 9 5 16 10 16 6 0 10 -4 10 -9z m381 -18 c-8 -15 -10 -15 -11 -2
0 17 10 32 18 25 2 -3 -1 -13 -7 -23z m-388 -53 c8 0 8 -3 2 -8 -6 -4 -16 -18
-22 -32 -10 -24 -10 -23 -7 10 5 64 6 66 11 48 2 -10 10 -18 16 -18z m407 10
c0 -5 -5 -10 -11 -10 -5 0 -7 5 -4 10 3 6 8 10 11 10 2 0 4 -4 4 -10z m-550
-175 c0 -8 -4 -15 -10 -15 -5 0 -7 7 -4 15 4 8 8 15 10 15 2 0 4 -7 4 -15z"/>
<path d="M3521 1744 c0 -11 3 -14 6 -6 3 7 2 16 -1 19 -3 4 -6 -2 -5 -13z"/>
<path d="M7540 1740 c0 -11 2 -20 4 -20 2 0 6 9 9 20 3 11 1 20 -4 20 -5 0 -9
-9 -9 -20z"/>
<path d="M2521 1704 c-7 -8 -11 -17 -9 -20 3 -2 13 5 23 16 10 11 14 20 9 20
-5 -1 -15 -8 -23 -16z"/>
<path d="M7522 1700 c0 -14 2 -19 5 -12 2 6 2 18 0 25 -3 6 -5 1 -5 -13z"/>
<path d="M2636 1677 c3 -10 9 -15 12 -12 3 3 0 11 -7 18 -10 9 -11 8 -5 -6z"/>
<path d="M7482 1671 c-11 -7 -10 -9 3 -14 9 -4 14 -3 10 2 -3 5 1 12 7 14 7 3
9 6 3 6 -5 0 -16 -3 -23 -8z"/>
<path d="M2480 1650 c0 -5 7 -7 15 -4 8 4 15 8 15 10 0 2 -7 4 -15 4 -8 0 -15
-4 -15 -10z"/>
<path d="M2486 1603 c7 -32 21 -50 30 -40 8 7 -18 67 -29 67 -4 0 -4 -12 -1
-27z"/>
<path d="M2510 1622 c0 -12 19 -26 26 -19 2 2 -2 10 -11 17 -9 8 -15 8 -15 2z"/>
<path d="M2645 1590 c-3 -6 1 -13 10 -16 21 -9 26 -2 10 13 -9 8 -16 9 -20 3z"/>
<path d="M2600 1580 c0 -5 5 -10 11 -10 5 0 7 5 4 10 -3 6 -8 10 -11 10 -2 0
-4 -4 -4 -10z"/>
<path d="M2049 1563 c-13 -16 -12 -17 4 -4 9 7 17 15 17 17 0 8 -8 3 -21 -13z"/>
<path d="M2640 1554 c0 -3 7 -12 15 -20 13 -13 15 -13 15 -1 0 8 -7 17 -15 21
-8 3 -15 3 -15 0z"/>
<path d="M2680 1550 c0 -5 7 -10 16 -10 8 0 12 -5 9 -10 -4 -6 -12 -7 -18 -4
-8 5 -8 3 1 -7 16 -17 35 1 26 24 -7 18 -34 24 -34 7z"/>
<path d="M3440 1524 c0 -8 5 -12 10 -9 6 4 8 11 5 16 -9 14 -15 11 -15 -7z"/>
<path d="M2590 1512 c0 -6 12 -12 27 -14 22 -2 29 -9 33 -33 l6 -30 8 29 c7
29 -4 45 -31 46 -6 0 -18 3 -27 6 -9 3 -16 1 -16 -4z"/>
<path d="M3828 1493 c5 -21 7 -23 10 -9 2 10 0 22 -6 28 -6 6 -7 0 -4 -19z"/>
<path d="M3781 1484 c0 -11 3 -14 6 -6 3 7 2 16 -1 19 -3 4 -6 -2 -5 -13z"/>
<path d="M3811 1484 c0 -11 3 -14 6 -6 3 7 2 16 -1 19 -3 4 -6 -2 -5 -13z"/>
<path d="M3861 1484 c0 -11 3 -14 6 -6 3 7 2 16 -1 19 -3 4 -6 -2 -5 -13z"/>
<path d="M5085 1071 c-53 -24 -86 -83 -92 -165 -4 -55 -2 -66 26 -108 50 -78
133 -102 219 -64 74 34 103 109 78 206 -20 77 -40 106 -87 131 -47 24 -92 24
-144 0z"/>
</g>
</svg>
